<svg xmlns="http://www.w3.org/2000/svg" width="20" height="20" fill="none" viewBox="0 0 20 20"><path fill="#fff" fill-rule="evenodd" d="M8.017 13.551a6.08 6.08 0 0 0 .009 1.007l-3.247-.36A2 2 0 0 1 3 12.21V7.79a2 2 0 0 1 1.78-1.988L12 5l3.486-2.091A1 1 0 0 1 17 3.766v5.037a5.97 5.97 0 0 0-1-.462V3.766l-3 1.8v2.517a5.956 5.956 0 0 0-1 .258V6.006l-5 .556v6.876zM6 13.327V6.673l-1.11.123A1 1 0 0 0 4 7.79v4.42a1 1 0 0 0 .89.994zM18 14a4 4 0 1 1-8 0 4 4 0 0 1 8 0zm-4 5a5 5 0 1 1 0-10 5 5 0 0 1 0 10zm2.121-2.879a.5.5 0 0 0 0-.707L14.707 14l1.414-1.414a.5.5 0 1 0-.707-.707L14 13.293l-1.414-1.414a.5.5 0 1 0-.707.707L13.293 14l-1.414 1.414a.5.5 0 1 0 .707.707L14 14.707l1.414 1.414a.5.5 0 0 0 .707 0z" clip-rule="evenodd"/></svg>