<svg width="80" height="80" viewBox="0 0 80 80" fill="none" xmlns="http://www.w3.org/2000/svg">
<g id="History placeholder">
<path id="Mask" d="M40 80C62.0914 80 80 62.0914 80 40C80 17.9086 62.0914 0 40 0C17.9086 0 0 17.9086 0 40C0 62.0914 17.9086 80 40 80Z" fill="#1E2A34"/>
<g id="Group">
<ellipse id="Ellipse" cx="39.9993" cy="39.9993" rx="21.2727" ry="21.2727" fill="#1E2A34"/>
<path id="Vector" d="M39.9994 61.6661C28.0333 61.6661 18.3328 51.9656 18.3328 39.9994C18.3328 28.0333 28.0333 18.3328 39.9994 18.3328C51.9656 18.3328 61.6661 28.0333 61.6661 39.9994C61.6661 51.9656 51.9656 61.6661 39.9994 61.6661ZM39.9994 59.4994C50.769 59.4994 59.4994 50.769 59.4994 39.9994C59.4994 29.2299 50.769 20.4994 39.9994 20.4994C29.2299 20.4994 20.4994 29.2299 20.4994 39.9994C20.4994 50.769 29.2299 59.4994 39.9994 59.4994ZM51.3901 45.5705L50.2754 47.4284L38.9161 40.6128V29.1661H41.0828V39.3861L51.3901 45.5705Z" fill="#51728F"/>
</g>
</g>
</svg>
