<svg width="48" height="48" viewBox="0 0 48 48" fill="none" xmlns="http://www.w3.org/2000/svg">
<path fill-rule="evenodd" clip-rule="evenodd" d="M20.0001 3H19.9988C17.2141 3.00352 14.5336 4.05928 12.4944 5.95571C10.6141 7.70435 9.40726 10.0486 9.06965 12.5805C7.81575 12.9458 5.97709 12.8705 4.44729 12.1056C4.1373 11.9506 3.76916 11.9671 3.47435 12.1493C3.18913 12.413 2.98757 12.7181 3.00276 13.1167C3.00522 13.1814 3.00995 13.2711 3.01902 13.3821C3.03712 13.6039 3.07268 13.9131 3.14274 14.2809C3.2821 15.0125 3.5624 15.9996 4.13184 16.9961C5.24528 18.9447 7.39203 20.7917 11.3179 20.9836C11.4643 21.497 11.4217 21.9478 11.2702 22.4025C11.0444 23.0798 10.5767 23.7723 9.93635 24.6688L9.79221 24.8701C8.57711 26.5659 7.00008 28.7669 7.00008 32C7.00008 34.1254 7.42407 35.8706 8.1294 37.2946C8.80997 37.0612 9.47875 36.9049 10.1389 36.8137C9.46026 35.6324 9.00008 34.0739 9.00008 32C9.00008 29.418 10.2404 27.6828 11.4838 25.9433L11.4838 25.9433L11.5638 25.8312C12.1735 24.9777 12.8308 24.0452 13.1675 23.035C13.5279 21.9537 13.5196 20.8029 12.8945 19.5528C12.7251 19.214 12.3789 19 12.0001 19C8.3624 19 6.692 17.4453 5.86832 16.0039C5.57662 15.4934 5.3817 14.9786 5.25191 14.519C7.091 14.981 9.03631 14.8448 10.4184 14.2083C10.7488 14.0561 10.9706 13.7365 10.9974 13.3737C11.1654 11.0997 12.1867 8.97313 13.8564 7.42026C15.526 5.86752 17.7207 5.00304 20.0007 5C22.3874 5.00017 24.6764 5.94837 26.364 7.63604C28.0519 9.32387 29.0001 11.6131 29.0001 14C29.0001 17.0588 27.4718 19.7586 25.1479 21.3799C24.804 21.6198 24.6463 22.0489 24.753 22.4544C24.8597 22.86 25.2081 23.1559 25.6256 23.1955C28.7067 23.488 32.1367 24.1864 35.5528 25.8944C38.6549 27.4454 40.9381 27.3254 42.5222 26.6031C42.1562 28.2486 41.5494 30.4269 40.5862 32.5939C38.6339 36.9866 35.3869 41 30.0001 41H27.8112C31.2732 41.3305 34.9045 40.9242 37.9444 39.9078C39.952 38.0881 41.3943 35.7001 42.4139 33.4061C43.4493 31.0764 44.0921 28.7581 44.4762 27.0294C44.6688 26.163 44.7975 25.4396 44.8783 24.9302C44.9188 24.6754 44.9473 24.4738 44.9659 24.3343C44.9752 24.2645 44.982 24.2103 44.9866 24.1726L45.0079 23.9688C45.0614 23.4872 44.748 23.1782 44.2833 23.0409C43.8219 22.9047 43.3295 23.1163 43.1104 23.5434L43.1052 23.5529C43.0977 23.566 43.083 23.5912 43.0607 23.6261C43.0159 23.696 42.9414 23.8027 42.8345 23.9273C42.6201 24.1775 42.284 24.49 41.8028 24.7306C40.8922 25.1859 39.229 25.4965 36.4473 24.1056C33.5746 22.6692 30.7103 21.9008 28.0583 21.4847C29.8794 19.5258 31.0001 16.8949 31.0001 14C31.0001 11.0826 29.8412 8.28473 27.7783 6.22183C25.7154 4.15893 22.9175 3 20.0001 3ZM18.2604 15.5C19.7299 15.5 20.9211 14.3088 20.9211 12.8393C20.9211 11.3699 19.7299 10.1787 18.2604 10.1787C16.791 10.1787 15.5997 11.3699 15.5997 12.8393C15.5997 14.3088 16.791 15.5 18.2604 15.5Z" fill="#0ED3DF"/>
<path d="M4 39.6247C11.0603 34.0752 16.4821 37.7647 23.0244 40C30.3415 42.5 40.5924 40.6247 44 36" stroke="#0ED3DF" stroke-width="2" stroke-linecap="round"/>
<path d="M21.2047 26.8052C27.1346 30.1807 31.8101 29.8462 33.4066 29.257C31.6031 32.1224 26.5698 35.3622 19.9746 32.4116" stroke="#0ED3DF" stroke-width="2" stroke-linecap="round" stroke-linejoin="round"/>
</svg>
