<svg width="23" height="23" viewBox="0 0 23 23" fill="none" xmlns="http://www.w3.org/2000/svg">
<path d="M16.3048 0.95428C13.6461 -0.23757 10.6206 -0.329251 7.87019 0.770919C6.03657 1.50437 4.38632 2.69622 3.19447 4.25479L2.73606 2.60454C2.64438 2.05445 2.18598 1.77941 1.63589 1.87109C1.17749 2.05445 0.902448 2.51285 0.994129 2.97126L1.91094 6.73017C2.00262 7.18858 2.36934 7.46362 2.82775 7.46362C2.91943 7.46362 3.01111 7.46362 3.01111 7.46362L6.77002 6.54681C7.22843 6.45513 7.59515 5.90505 7.41179 5.44664C7.41179 4.89656 6.8617 4.62151 6.4033 4.80488L4.84472 5.1716C5.85321 3.97975 7.04506 3.06294 8.51196 2.51285C10.804 1.59605 13.2794 1.68773 15.5714 2.69622C17.7717 3.70471 19.5137 5.44664 20.4305 7.73866C21.3473 10.0307 21.2556 12.5061 20.2471 14.7981C19.2386 17.0901 17.4967 18.7404 15.2047 19.6572C11.9958 20.849 8.42028 20.2989 5.85321 18.0069C4.75304 16.9984 3.83623 15.8066 3.28615 14.4314C3.10279 13.973 2.5527 13.6979 2.0943 13.8813C1.63589 14.0646 1.36085 14.6147 1.54421 15.0731C2.18598 16.7234 3.28615 18.282 4.56968 19.3821C6.58666 21.1241 9.15372 22.0409 11.8125 22.0409C13.1877 22.0409 14.4712 21.7658 15.7547 21.3074C18.5052 20.2073 20.6138 18.1903 21.8057 15.5315C22.9975 12.8728 23.0892 9.84732 21.989 7.0969C20.8889 4.34647 19.0553 2.14613 16.3048 0.95428Z" fill="#0ED3DF"/>
<path d="M11.9041 5.53833C11.354 5.53833 10.9873 5.90505 10.9873 6.45514V11.956C10.9873 12.231 11.079 12.5061 11.354 12.6894L15.0213 15.4399C15.2046 15.5315 15.388 15.6232 15.5713 15.6232C15.8464 15.6232 16.1214 15.5315 16.3048 15.2565C16.5798 14.8898 16.4882 14.248 16.1214 13.973L12.8209 11.4976V6.45514C12.8209 5.90505 12.4542 5.53833 11.9041 5.53833Z" fill="#0ED3DF"/>
</svg>
