<svg width="40" height="40" viewBox="0 0 40 40" fill="none" xmlns="http://www.w3.org/2000/svg">
<circle cx="20" cy="20" r="20" fill="#58ED9A"/>
<path d="M20 27.9651C19.3079 27.9651 18.7468 27.3906 18.7468 26.6819L18.7468 11.2832C18.7468 10.5745 19.3079 10 20 10C20.6921 10 21.2532 10.5745 21.2532 11.2832L21.2532 26.6819C21.2532 27.3906 20.6921 27.9651 20 27.9651Z" fill="white"/>
<path d="M15.2468 21.8147L19.1139 25.7745C19.6033 26.2756 20.3967 26.2756 20.8861 25.7745L24.7532 21.8147C25.2426 21.3136 26.036 21.3136 26.5254 21.8147L26.633 21.9248C27.1223 22.426 27.1223 23.2384 26.633 23.7396L20.8861 29.6242C20.3967 30.1253 19.6033 30.1253 19.1139 29.6242L13.367 23.7396C12.8777 23.2385 12.8777 22.426 13.367 21.9248L13.4746 21.8147C13.964 21.3136 14.7574 21.3136 15.2468 21.8147Z" fill="white"/>
</svg>
