<svg width="61" height="61" viewBox="0 0 61 61" fill="none" xmlns="http://www.w3.org/2000/svg">
<path d="M33.9765 4.7545L34.6552 4.05286L33.9765 4.7545L35.2367 5.97366C36.7885 7.47489 38.9463 8.17599 41.0841 7.8736L42.8203 7.62803C45.4907 7.25033 47.9794 9.05849 48.4454 11.7149L48.7483 13.4419C49.1213 15.5686 50.4549 17.4041 52.3622 18.4161L53.9111 19.2379C56.2935 20.5019 57.2441 23.4276 56.0597 25.8505L55.2897 27.4258C54.3414 29.3656 54.3414 31.6344 55.2897 33.5742L56.0597 35.1495C57.2441 37.5724 56.2935 40.4981 53.9111 41.7621L52.3622 42.5839C50.4549 43.5959 49.1213 45.4314 48.7483 47.5581L48.4454 49.2851C47.9794 51.9415 45.4907 53.7497 42.8203 53.372L41.0841 53.1264C38.9463 52.824 36.7885 53.5251 35.2367 55.0263L33.9765 56.2455C32.0381 58.1207 28.9619 58.1207 27.0235 56.2455L25.7633 55.0263C24.2115 53.5251 22.0537 52.824 19.9159 53.1264L18.1797 53.372C15.5093 53.7497 13.0206 51.9415 12.5546 49.2851L12.2517 47.5581C11.8786 45.4314 10.5451 43.5959 8.63779 42.5839L7.08887 41.7621C4.70649 40.4981 3.75588 37.5724 4.94029 35.1495L5.71034 33.5742C6.65855 31.6344 6.65856 29.3656 5.71034 27.4258L4.94029 25.8505C3.75588 23.4276 4.70649 20.5019 7.08886 19.2379L8.63779 18.4161C10.5451 17.4041 11.8786 15.5686 12.2517 13.4419L12.5546 11.7149C13.0206 9.05849 15.5093 7.25033 18.1797 7.62803L19.9159 7.8736C22.0537 8.17599 24.2115 7.47489 25.7633 5.97366L27.0235 4.7545C28.9619 2.87933 32.0381 2.87933 33.9765 4.7545Z" stroke="#58ED9A" stroke-width="2"/>
<path d="M19 30.7429L26.5192 39L42 22" stroke="#58ED9A" stroke-width="2" stroke-linecap="round"/>
</svg>
