<svg width="40" height="40" viewBox="0 0 40 40" fill="none" xmlns="http://www.w3.org/2000/svg">
<circle cx="20" cy="20" r="20" fill="#02A9F5"/>
<g clip-path="url(#clip0_231_11891)">
<path d="M25.6322 14.3678C26.1216 14.8572 26.1121 15.6602 25.6109 16.1613L14.7224 27.0498C14.2213 27.5509 13.4183 27.5604 12.9289 27.0711C12.4395 26.5817 12.449 25.7787 12.9502 25.2775L23.8387 14.3891C24.3398 13.8879 25.1428 13.8784 25.6322 14.3678Z" fill="white"/>
<path d="M24.6442 22.0778L24.7098 16.5434C24.7181 15.843 24.157 15.2819 23.4566 15.2902L17.9222 15.3558C17.2218 15.3641 16.6607 14.803 16.669 14.1026L16.6709 13.9487C16.6791 13.2483 17.2537 12.6738 17.9541 12.6655L26.1787 12.5681C26.8791 12.5598 27.4402 13.1209 27.4319 13.8213L27.3345 22.0459C27.3262 22.7463 26.7517 23.3208 26.0513 23.3291L25.8974 23.3309C25.197 23.3392 24.6359 22.7782 24.6442 22.0778Z" fill="white"/>
</g>
<defs>
<clipPath id="clip0_231_11891">
<rect width="24" height="24" fill="white" transform="translate(8 8)"/>
</clipPath>
</defs>
</svg>
