<svg width="40" height="40" viewBox="0 0 40 40" fill="none" xmlns="http://www.w3.org/2000/svg">
<circle cx="20" cy="20" r="20" fill="#FFD644"/>
<path fill-rule="evenodd" clip-rule="evenodd" d="M16.2437 11.9606C16.8177 12.5579 16.7988 13.5075 16.2015 14.0815L14.7255 15.5H25C25.8284 15.5 26.5 16.1716 26.5 17C26.5 17.8284 25.8284 18.5 25 18.5H11C10.3879 18.5 9.83716 18.1281 9.60854 17.5602C9.37992 16.9924 9.51926 16.3426 9.96061 15.9185L14.1228 11.9185C14.7201 11.3444 15.6696 11.3633 16.2437 11.9606Z" fill="white"/>
<path fill-rule="evenodd" clip-rule="evenodd" d="M23.7563 28.0394C23.1823 27.4421 23.2012 26.4925 23.7985 25.9185L25.2745 24.5H15C14.1716 24.5 13.5 23.8284 13.5 23C13.5 22.1716 14.1716 21.5 15 21.5H29C29.6121 21.5 30.1628 21.8719 30.3915 22.4398C30.6201 23.0076 30.4807 23.6574 30.0394 24.0815L25.8772 28.0815C25.2799 28.6556 24.3304 28.6367 23.7563 28.0394Z" fill="white"/>
</svg>
