<svg width="13" height="16" viewBox="0 0 13 16" fill="none" xmlns="http://www.w3.org/2000/svg">
<path d="M6.5 2L12.1292 5.25V11.75L6.5 15L0.870835 11.75V5.25L6.5 2Z" fill="#FFD644"/>
<path d="M9.31445 6.55469C9.31445 7.42188 8.89453 8.18555 8.05469 8.8457C7.76953 9.07227 7.56836 9.27148 7.45117 9.44336C7.33398 9.61523 7.27539 9.82812 7.27539 10.082V10.2871H5.30664V9.77148C5.30664 9.05664 5.54297 8.49609 6.01562 8.08984C6.32422 7.82812 6.52148 7.64844 6.60742 7.55078C6.69727 7.45312 6.75977 7.35938 6.79492 7.26953C6.83398 7.17969 6.85352 7.07422 6.85352 6.95312C6.85352 6.80469 6.78711 6.67969 6.6543 6.57812C6.52539 6.47656 6.35742 6.42578 6.15039 6.42578C5.52148 6.42578 4.86133 6.67773 4.16992 7.18164V4.87891C4.42383 4.73438 4.76562 4.60938 5.19531 4.50391C5.62891 4.39844 6.01758 4.3457 6.36133 4.3457C7.31836 4.3457 8.04883 4.53516 8.55273 4.91406C9.06055 5.28906 9.31445 5.83594 9.31445 6.55469ZM7.75586 11.957C7.75586 12.3047 7.62891 12.5898 7.375 12.8125C7.125 13.0352 6.78711 13.1465 6.36133 13.1465C5.95117 13.1465 5.61719 13.0332 5.35938 12.8066C5.10156 12.5762 4.97266 12.293 4.97266 11.957C4.97266 11.6133 5.09766 11.3359 5.34766 11.125C5.60156 10.9102 5.93945 10.8027 6.36133 10.8027C6.7793 10.8027 7.11523 10.9102 7.36914 11.125C7.62695 11.3359 7.75586 11.6133 7.75586 11.957Z" fill="black"/>
</svg>
