<svg xmlns="http://www.w3.org/2000/svg" width="20" height="20" fill="none" viewBox="0 0 20 20"><path fill="#f91a47" fill-rule="evenodd" d="M18 10a8 8 0 1 1-16 0 8 8 0 0 1 16 0zm2 0c0 5.523-4.477 10-10 10S0 15.523 0 10 4.477 0 10 0s10 4.477 10 10zM8.659 11.891c-.471.462-.992.959-1.561 1.491v1.176h6.258v-1.736h-1.792c-.215 0-.46.012-.735.035s-.525.049-.749.077c.364-.373.716-.754 1.057-1.141s.644-.775.91-1.162.478-.775.637-1.162.238-.768.238-1.141c0-.43-.07-.817-.21-1.162s-.34-.642-.602-.889-.572-.439-.931-.574-.758-.203-1.197-.203c-.635 0-1.18.119-1.638.357S7.439 6.447 7 6.914L8.12 8.02c.224-.243.462-.455.714-.637s.541-.273.868-.273c.392 0 .7.114.924.343s.336.562.336 1.001c0 .317-.096.651-.287 1.001s-.457.728-.798 1.134c-.34.406-.747.84-1.218 1.302z" clip-rule="evenodd"/></svg>