<svg xmlns="http://www.w3.org/2000/svg" width="20" height="20" fill="none" viewBox="0 0 20 20"><path fill="#f5a523" fill-rule="evenodd" d="M10 20c5.523 0 10-4.477 10-10S15.523 0 10 0 0 4.477 0 10s4.477 10 10 10zm-1.575-7.067a4.74 4.74 0 0 1-.875-.623l-.924 1.302c.355.355.784.651 1.288.889s1.12.357 1.848.357c.43 0 .842-.07 1.239-.21s.744-.343 1.043-.609.537-.59.714-.973.266-.821.266-1.316c0-.476-.075-.887-.224-1.232s-.355-.63-.616-.854-.562-.392-.903-.504-.702-.168-1.085-.168c-.187 0-.357.016-.511.049s-.315.086-.483.161l.154-1.666h3.262V5.8h-5.04l-.252 4.494.924.588c.13-.084.25-.154.357-.21s.21-.103.308-.14.198-.063.301-.077.22-.021.35-.021c.42 0 .758.117 1.015.35s.385.574.385 1.022c0 .457-.135.803-.406 1.036s-.635.35-1.092.35a2.12 2.12 0 0 1-1.043-.259z" clip-rule="evenodd"/></svg>