<svg xmlns="http://www.w3.org/2000/svg" width="20" height="20" fill="none" viewBox="0 0 20 20"><path fill="#f91a47" fill-rule="evenodd" d="M18 10a8 8 0 1 1-16 0 8 8 0 0 1 16 0zm2 0c0 5.523-4.477 10-10 10S0 15.523 0 10 4.477 0 10 0s10 4.477 10 10zm-9.291 2.843c-.22.229-.483.343-.791.343a1.062 1.062 0 0 1-.854-.399 2.083 2.083 0 0 1-.322-.567 3.712 3.712 0 0 1-.21-.882c.205-.327.425-.555.658-.686.233-.13.462-.196.686-.196.336 0 .614.096.833.287s.329.525.329 1.001c0 .504-.11.87-.329 1.099zm.385-5.488c.252.126.457.273.616.441l1.078-1.232c-.28-.29-.635-.539-1.064-.749s-.938-.315-1.526-.315c-.467 0-.917.096-1.351.287s-.817.483-1.148.875c-.331.392-.597.891-.798 1.498S6.6 9.485 6.6 10.316c0 .784.093 1.454.28 2.009s.436 1.01.749 1.365.672.616 1.078.784.824.252 1.253.252c.401 0 .782-.068 1.141-.203s.672-.334.938-.595.478-.574.637-.938.238-.78.238-1.246-.065-.873-.196-1.218-.315-.63-.553-.854-.518-.392-.84-.504S10.651 9 10.268 9c-.14 0-.29.021-.448.063s-.317.103-.476.182-.313.177-.462.294c-.15.117-.28.25-.392.399.019-.513.08-.947.182-1.302s.236-.642.399-.861c.163-.22.352-.376.567-.469a1.708 1.708 0 0 1 1.456.049z" clip-rule="evenodd"/></svg>