<svg xmlns="http://www.w3.org/2000/svg" width="20" height="20" fill="none" viewBox="0 0 20 20"><path fill="#f5a523" fill-rule="evenodd" d="M10 20c5.523 0 10-4.477 10-10S15.523 0 10 0 0 4.477 0 10s4.477 10 10 10zm.538-10.426c-.233.13-.462.196-.686.196-.336 0-.616-.096-.84-.287s-.336-.525-.336-1.001c0-.504.112-.87.336-1.099s.485-.343.784-.343c.317 0 .604.133.861.399s.432.749.525 1.449c-.196.327-.41.555-.644.686zM8.62 12.871a1.974 1.974 0 0 1-.602-.441l-1.092 1.232c.28.28.637.527 1.071.742.434.215.945.322 1.533.322.467 0 .917-.096 1.351-.287s.817-.483 1.148-.875.597-.891.798-1.498.301-1.325.301-2.156c0-.784-.096-1.454-.287-2.009s-.443-1.01-.756-1.365-.672-.616-1.078-.784-.824-.252-1.253-.252a3.21 3.21 0 0 0-1.141.203c-.36.135-.672.334-.938.595s-.478.576-.637.945A3.104 3.104 0 0 0 6.8 8.482c0 .467.068.873.203 1.218s.32.63.553.854c.233.224.511.392.833.504s.674.168 1.057.168c.14 0 .29-.021.448-.063.159-.042.317-.103.476-.182s.313-.177.462-.294.28-.25.392-.399c-.019.523-.077.959-.175 1.309s-.229.635-.392.854-.352.376-.567.469a1.737 1.737 0 0 1-1.47-.049z" clip-rule="evenodd"/></svg>