<svg xmlns="http://www.w3.org/2000/svg" width="51" height="51" fill="none" viewBox="0 0 51 51"><path fill="#000" fill-rule="evenodd" d="M14.063 14.354h2.97c1.232 0 2.232 1 2.232 2.232v8.662h5.804v3.125h-6.697c-1.233 0-2.232-1-2.232-2.232v-8.662h-2.077zm22.703 2.232v2.322h-3.125v-1.429h-2.455v10.894H28.06V17.48h-2.455v1.429h-3.126v-2.322c0-1.233 1-2.232 2.233-2.232h9.822c1.233 0 2.232 1 2.232 2.232z" clip-rule="evenodd"/><path fill="#45a8fc" d="M12.615 36.756 9.71 34.68c.854-1.196 1.735-2.12 2.661-2.77 1.03-.72 2.125-1.103 3.257-1.103 1.05 0 1.961.255 2.774.743.328.196.63.423.935.692.21.186.36.331.679.65.484.484.685.662.926.806.26.157.536.234.937.234.4 0 .677-.077.94-.235.241-.144.444-.323.928-.806l.004-.004c.318-.317.47-.464.68-.649.304-.268.605-.494.932-.69.812-.487 1.72-.741 2.766-.741s1.955.254 2.766.74a6.3 6.3 0 0 1 .933.691c.21.185.361.332.68.649l.004.004c.483.483.686.662.928.806.262.158.54.235.94.235.356 0 .75-.138 1.208-.459.561-.393 1.169-1.03 1.803-1.918l2.907 2.076c-.854 1.195-1.735 2.12-2.662 2.769-1.03.72-2.125 1.104-3.256 1.104-1.05 0-1.961-.255-2.775-.742a6.31 6.31 0 0 1-.936-.693c-.21-.185-.362-.332-.68-.65l-.005-.004c-.483-.482-.685-.66-.925-.804-.26-.156-.534-.233-.93-.233s-.67.077-.93.233c-.24.144-.442.322-.925.804l-.004.004c-.319.318-.47.465-.681.65a6.303 6.303 0 0 1-.936.693c-.814.487-1.724.742-2.775.742-1.05 0-1.96-.255-2.774-.743a6.301 6.301 0 0 1-.934-.693c-.21-.185-.36-.33-.68-.65-.484-.484-.685-.661-.925-.806-.261-.156-.537-.234-.937-.234-.357 0-.75.138-1.208.459-.562.393-1.17 1.03-1.804 1.919z"/></svg>