<svg xmlns="http://www.w3.org/2000/svg" width="203" height="51" fill="none" viewBox="0 0 203 51"><clipPath id="a"><path d="M0 0h202.005v50.005H0z"/></clipPath><g clip-path="url(#a)"><path fill="#fff" d="M0 25.002C0 11.194 11.194 0 25.002 0c13.809 0 25.003 11.194 25.003 25.002 0 13.809-11.194 25.003-25.003 25.003C11.194 50.005 0 38.81 0 25.002z"/><path fill="#000" fill-rule="evenodd" d="M14.063 14.354h2.97c1.232 0 2.232 1 2.232 2.232v8.662h5.804v3.125h-6.697c-1.233 0-2.232-1-2.232-2.232v-8.662h-2.077zm22.703 2.232v2.322h-3.125v-1.429h-2.455v10.894H28.06V17.48h-2.455v1.429h-3.126v-2.322c0-1.233 1-2.232 2.233-2.232h9.822c1.233 0 2.232 1 2.232 2.232z" clip-rule="evenodd"/><path fill="#45a8fc" d="M12.615 36.756 9.71 34.68c.854-1.196 1.735-2.12 2.661-2.77 1.03-.72 2.125-1.103 3.257-1.103 1.05 0 1.961.255 2.774.743.328.196.63.423.935.692.21.186.36.331.679.65.484.484.685.662.926.806.26.157.536.234.937.234.4 0 .677-.077.94-.235.241-.144.444-.323.928-.806l.004-.004c.318-.317.47-.464.68-.649.304-.268.605-.494.932-.69.812-.487 1.72-.741 2.766-.741s1.955.254 2.766.74a6.3 6.3 0 0 1 .933.691c.21.185.361.332.68.649l.004.004c.483.483.686.662.928.806.262.158.54.235.94.235.356 0 .75-.138 1.208-.459.561-.393 1.169-1.03 1.803-1.918l2.907 2.076c-.854 1.195-1.735 2.12-2.662 2.769-1.03.72-2.125 1.104-3.256 1.104-1.05 0-1.961-.255-2.775-.742a6.31 6.31 0 0 1-.936-.693c-.21-.185-.362-.332-.68-.65l-.005-.004c-.483-.482-.685-.66-.925-.804-.26-.156-.534-.233-.93-.233s-.67.077-.93.233c-.24.144-.442.322-.925.804l-.004.004c-.319.318-.47.465-.681.65a6.303 6.303 0 0 1-.936.693c-.814.487-1.724.742-2.775.742-1.05 0-1.96-.255-2.774-.743a6.301 6.301 0 0 1-.934-.693c-.21-.185-.36-.33-.68-.65-.484-.484-.685-.661-.925-.806-.261-.156-.537-.234-.937-.234-.357 0-.75.138-1.208.459-.562.393-1.17 1.03-1.804 1.919z"/><path fill="#18181a" d="M55.333 21.002V10.538h1.856v8.896h4.352v1.568zm9.775.192c-.693 0-1.253-.208-1.68-.624-.426-.426-.64-.986-.64-1.68 0-.416.086-.784.256-1.104.182-.33.459-.613.832-.848.384-.234.864-.432 1.44-.592.587-.16 1.286-.282 2.096-.368a2.495 2.495 0 0 0-.096-.576 1.134 1.134 0 0 0-.24-.496.972.972 0 0 0-.432-.336 1.574 1.574 0 0 0-.672-.128c-.384 0-.762.075-1.136.224-.362.15-.72.331-1.072.544l-.672-1.232a7.877 7.877 0 0 1 1.472-.72 5.003 5.003 0 0 1 1.76-.304c.982 0 1.712.294 2.192.88.49.576.736 1.414.736 2.512v4.656h-1.52l-.128-.864h-.064c-.352.3-.73.55-1.136.752a2.794 2.794 0 0 1-1.296.304zm.592-1.44c.32 0 .608-.074.864-.224.267-.149.55-.362.848-.64v-1.76c-.533.064-.981.15-1.344.256a3.69 3.69 0 0 0-.88.368c-.224.128-.384.278-.48.448a1.094 1.094 0 0 0-.144.544c0 .352.107.608.32.768.214.16.486.24.816.24zm5.754 1.248v-7.856h1.52l.128 1.056h.064a6.43 6.43 0 0 1 1.136-.88c.416-.245.896-.368 1.44-.368.843 0 1.456.272 1.84.816.384.534.576 1.302.576 2.304v4.928h-1.84v-4.688c0-.65-.096-1.109-.288-1.376-.192-.266-.507-.4-.944-.4-.341 0-.645.086-.912.256-.256.16-.55.4-.88.72v5.488zm11.69 3.472a6.36 6.36 0 0 1-1.313-.128 3.41 3.41 0 0 1-1.024-.384 2.091 2.091 0 0 1-.688-.64 1.655 1.655 0 0 1-.24-.896c0-.33.096-.64.288-.928.192-.277.47-.528.832-.752v-.064a1.673 1.673 0 0 1-.512-.512c-.128-.213-.192-.48-.192-.8 0-.309.086-.586.256-.832.182-.256.384-.464.608-.624v-.064a2.939 2.939 0 0 1-.72-.832 2.514 2.514 0 0 1-.304-1.248c0-.448.086-.848.256-1.2s.395-.645.672-.88c.288-.245.619-.426.992-.544a3.625 3.625 0 0 1 1.184-.192 2.8 2.8 0 0 1 .608.064c.203.032.384.075.544.128h2.816v1.36h-1.44c.128.15.235.342.32.576a2.1 2.1 0 0 1 .128.752c0 .438-.08.822-.24 1.152-.15.331-.357.608-.624.832a2.78 2.78 0 0 1-.944.512 3.771 3.771 0 0 1-1.168.176c-.17 0-.346-.016-.528-.048a2.622 2.622 0 0 1-.544-.16 1.947 1.947 0 0 0-.288.32.837.837 0 0 0-.096.432c0 .224.09.4.272.528.192.128.528.192 1.008.192h1.392c.95 0 1.664.155 2.144.464.49.3.736.79.736 1.472 0 .384-.101.747-.304 1.088-.192.342-.47.635-.832.88-.362.246-.805.438-1.328.576a6.166 6.166 0 0 1-1.728.224zm.095-7.12c.374 0 .694-.133.96-.4.267-.277.4-.672.4-1.184 0-.49-.133-.869-.4-1.136-.256-.277-.576-.416-.96-.416s-.71.134-.976.4c-.266.267-.4.651-.4 1.152 0 .512.134.907.4 1.184.267.267.592.4.976.4zm.192 5.92c.64 0 1.152-.128 1.536-.384.395-.245.592-.538.592-.88 0-.309-.122-.517-.368-.624-.234-.106-.576-.16-1.024-.16h-1.072c-.426 0-.784-.037-1.072-.112-.405.31-.608.656-.608 1.04 0 .352.176.624.528.816.363.203.859.304 1.488.304zm7.625-2.08c-.843 0-1.456-.266-1.84-.8-.384-.544-.576-1.317-.576-2.32v-4.928h1.84v4.688c0 .651.096 1.11.288 1.376.192.267.501.4.928.4.341 0 .64-.085.896-.256.266-.17.55-.448.848-.832v-5.376h1.84v7.856h-1.504l-.144-1.152h-.048a4.546 4.546 0 0 1-1.12.976c-.395.246-.864.368-1.408.368zm8.458 0c-.693 0-1.253-.208-1.68-.624-.426-.426-.64-.986-.64-1.68 0-.416.086-.784.256-1.104.182-.33.459-.613.832-.848.384-.234.864-.432 1.44-.592.587-.16 1.286-.282 2.096-.368a2.432 2.432 0 0 0-.096-.576 1.121 1.121 0 0 0-.24-.496.965.965 0 0 0-.432-.336 1.572 1.572 0 0 0-.672-.128c-.384 0-.762.075-1.136.224-.362.15-.72.331-1.072.544l-.672-1.232a7.873 7.873 0 0 1 1.472-.72 5.002 5.002 0 0 1 1.76-.304c.982 0 1.712.294 2.192.88.491.576.736 1.414.736 2.512v4.656h-1.52l-.128-.864h-.064c-.352.3-.73.55-1.136.752a2.791 2.791 0 0 1-1.296.304zm.592-1.44c.32 0 .608-.074.864-.224.267-.149.55-.362.848-.64v-1.76a8.42 8.42 0 0 0-1.344.256 3.65 3.65 0 0 0-.88.368c-.224.128-.384.278-.48.448a1.094 1.094 0 0 0-.144.544c0 .352.107.608.32.768.214.16.486.24.816.24zm8.49 4.72c-.469 0-.906-.042-1.312-.128a3.417 3.417 0 0 1-1.024-.384 2.095 2.095 0 0 1-.688-.64 1.655 1.655 0 0 1-.24-.896c0-.33.096-.64.288-.928.192-.277.47-.528.832-.752v-.064a1.685 1.685 0 0 1-.512-.512c-.128-.213-.192-.48-.192-.8 0-.309.086-.586.256-.832.182-.256.384-.464.608-.624v-.064a2.961 2.961 0 0 1-.72-.832 2.522 2.522 0 0 1-.304-1.248c0-.448.086-.848.256-1.2a2.66 2.66 0 0 1 .672-.88c.288-.245.619-.426.992-.544a3.628 3.628 0 0 1 1.184-.192c.214 0 .416.022.608.064.203.032.384.075.544.128h2.816v1.36h-1.44c.128.15.235.342.32.576.086.224.128.475.128.752 0 .438-.08.822-.24 1.152a2.303 2.303 0 0 1-.624.832 2.77 2.77 0 0 1-.944.512 3.768 3.768 0 0 1-1.168.176c-.17 0-.346-.016-.528-.048a2.641 2.641 0 0 1-.544-.16 1.984 1.984 0 0 0-.288.32.837.837 0 0 0-.096.432c0 .224.091.4.272.528.192.128.528.192 1.008.192h1.392c.95 0 1.664.155 2.144.464.491.3.736.79.736 1.472 0 .384-.101.747-.304 1.088a2.603 2.603 0 0 1-.832.88c-.362.246-.805.438-1.328.576a6.166 6.166 0 0 1-1.728.224zm.096-7.12c.374 0 .694-.133.96-.4.267-.277.4-.672.4-1.184 0-.49-.133-.869-.4-1.136-.256-.277-.576-.416-.96-.416s-.709.134-.976.4c-.266.267-.4.651-.4 1.152 0 .512.134.907.4 1.184.267.267.592.4.976.4zm.192 5.92c.64 0 1.152-.128 1.536-.384.395-.245.592-.538.592-.88 0-.309-.122-.517-.368-.624-.234-.106-.576-.16-1.024-.16h-1.072a4.35 4.35 0 0 1-1.072-.112c-.405.31-.608.656-.608 1.04 0 .352.176.624.528.816.363.203.859.304 1.488.304zm8.399-2.08c-.544 0-1.051-.09-1.52-.272-.469-.192-.88-.464-1.232-.816s-.629-.778-.832-1.28c-.192-.512-.288-1.093-.288-1.744 0-.64.101-1.216.304-1.728s.469-.944.8-1.296c.341-.352.731-.624 1.168-.816s.885-.288 1.344-.288c.533 0 1.003.091 1.408.272.405.182.741.438 1.008.768.277.331.485.726.624 1.184a5.167 5.167 0 0 1 .176 2.016c-.011.16-.027.288-.048.384h-4.992c.085.704.331 1.248.736 1.632.416.374.944.56 1.584.56.341 0 .656-.048.944-.144.299-.106.592-.25.88-.432l.624 1.152c-.373.246-.789.448-1.248.608s-.939.24-1.44.24zm-2.096-4.864h3.488c0-.608-.133-1.082-.4-1.424-.256-.352-.656-.528-1.2-.528-.469 0-.88.166-1.232.496-.352.331-.571.816-.656 1.456zm8.941 4.672v-8.448h-2.864V10.57h8.096v1.984h-2.864v8.448zm8.856.192c-.501 0-.987-.09-1.456-.272a3.898 3.898 0 0 1-1.248-.816 3.956 3.956 0 0 1-.848-1.296c-.213-.522-.32-1.114-.32-1.776 0-.66.107-1.248.32-1.76.213-.522.496-.96.848-1.312a3.685 3.685 0 0 1 1.248-.8c.469-.192.955-.288 1.456-.288s.981.096 1.44.288c.469.182.88.448 1.232.8.363.352.651.79.864 1.312.213.512.32 1.1.32 1.76 0 .662-.107 1.254-.32 1.776a3.825 3.825 0 0 1-.864 1.296 3.713 3.713 0 0 1-1.232.816 3.883 3.883 0 0 1-1.44.272zm0-1.904c.48 0 .843-.202 1.088-.608.245-.405.368-.954.368-1.648 0-.693-.123-1.242-.368-1.648-.245-.405-.608-.608-1.088-.608-.491 0-.859.203-1.104.608-.235.406-.352.955-.352 1.648 0 .694.117 1.243.352 1.648.245.406.613.608 1.104.608zm8.875 1.904c-.501 0-.987-.09-1.456-.272a3.898 3.898 0 0 1-1.248-.816 3.956 3.956 0 0 1-.848-1.296c-.213-.522-.32-1.114-.32-1.776 0-.66.107-1.248.32-1.76.213-.522.496-.96.848-1.312a3.685 3.685 0 0 1 1.248-.8c.469-.192.955-.288 1.456-.288s.981.096 1.44.288c.469.182.88.448 1.232.8.363.352.651.79.864 1.312.213.512.32 1.1.32 1.76 0 .662-.107 1.254-.32 1.776a3.825 3.825 0 0 1-.864 1.296 3.713 3.713 0 0 1-1.232.816 3.883 3.883 0 0 1-1.44.272zm0-1.904c.48 0 .843-.202 1.088-.608.245-.405.368-.954.368-1.648 0-.693-.123-1.242-.368-1.648-.245-.405-.608-.608-1.088-.608-.491 0-.859.203-1.104.608-.235.406-.352.955-.352 1.648 0 .694.117 1.243.352 1.648.245.406.613.608 1.104.608zm7.627 1.904c-.405 0-.747-.064-1.024-.192s-.501-.304-.672-.528a2.456 2.456 0 0 1-.352-.832 5 5 0 0 1-.112-1.104V9.786h2.352v8.848c0 .246.043.416.128.512.096.096.192.144.288.144h.128c.043 0 .096-.01.16-.032l.288 1.744a2.203 2.203 0 0 1-.496.128 3.208 3.208 0 0 1-.688.064zm-94.17 23.088V33.226h1.089l.112.896h.048a6.026 6.026 0 0 1 1.152-.768c.427-.213.87-.32 1.328-.32.501 0 .944.096 1.328.288.384.182.704.448.96.8.256.342.448.758.576 1.248a5.87 5.87 0 0 1 .208 1.632c0 .662-.09 1.254-.272 1.776-.181.512-.427.95-.736 1.312a3.21 3.21 0 0 1-1.072.832 3.099 3.099 0 0 1-1.28.272c-.363 0-.725-.08-1.088-.24a5.573 5.573 0 0 1-1.072-.656l.032 1.36v2.624zm3.217-4.192c.32 0 .613-.069.88-.208.277-.149.512-.352.704-.608.203-.266.357-.592.464-.976a4.43 4.43 0 0 0 .176-1.296c0-.426-.037-.816-.112-1.168a2.44 2.44 0 0 0-.368-.896 1.628 1.628 0 0 0-.64-.592c-.256-.138-.565-.208-.928-.208-.33 0-.667.091-1.008.272-.33.182-.688.443-1.072.784v4.08c.352.3.693.512 1.024.64.33.118.624.176.88.176zm5.659.912v-7.776h1.088l.112 1.408h.048c.267-.49.587-.88.96-1.168.384-.288.8-.432 1.248-.432.31 0 .587.054.832.16l-.256 1.152a2.988 2.988 0 0 0-.352-.096 2.092 2.092 0 0 0-.4-.032c-.33 0-.678.134-1.04.4-.352.267-.662.731-.928 1.392v4.992zm8.415.192c-.48 0-.94-.09-1.376-.272a3.444 3.444 0 0 1-1.136-.784 4.077 4.077 0 0 1-.8-1.28c-.192-.512-.288-1.088-.288-1.728 0-.65.096-1.226.288-1.728.202-.512.469-.944.8-1.296s.709-.618 1.136-.8a3.58 3.58 0 0 1 1.376-.272 3.441 3.441 0 0 1 2.512 1.072c.33.352.592.784.784 1.296.202.502.304 1.078.304 1.728 0 .64-.102 1.216-.304 1.728a3.86 3.86 0 0 1-.784 1.28 3.394 3.394 0 0 1-1.152.784 3.44 3.44 0 0 1-1.36.272zm0-1.088c.33 0 .634-.069.912-.208.277-.149.512-.352.704-.608a2.89 2.89 0 0 0 .464-.944c.106-.362.16-.768.16-1.216s-.054-.853-.16-1.216a2.874 2.874 0 0 0-.464-.96 1.919 1.919 0 0 0-.704-.608c-.278-.149-.582-.224-.912-.224s-.635.075-.912.224a2.056 2.056 0 0 0-.72.608 3.074 3.074 0 0 0-.448.96c-.107.363-.16.768-.16 1.216s.053.854.16 1.216c.106.363.256.678.448.944.202.256.442.46.72.608.277.14.58.208.912.208zm8.671 1.088c-.48 0-.938-.09-1.376-.272a3.443 3.443 0 0 1-1.136-.784 4.076 4.076 0 0 1-.8-1.28c-.192-.512-.288-1.088-.288-1.728 0-.65.096-1.226.288-1.728.203-.512.47-.944.8-1.296a3.34 3.34 0 0 1 1.136-.8c.438-.18.896-.272 1.376-.272a3.441 3.441 0 0 1 2.512 1.072c.331.352.592.784.784 1.296.203.502.304 1.078.304 1.728 0 .64-.101 1.216-.304 1.728a3.861 3.861 0 0 1-.784 1.28c-.33.342-.714.603-1.152.784a3.44 3.44 0 0 1-1.36.272zm0-1.088c.331 0 .635-.069.912-.208.278-.149.512-.352.704-.608.203-.266.358-.58.464-.944.107-.362.16-.768.16-1.216s-.053-.853-.16-1.216a2.876 2.876 0 0 0-.464-.96 1.919 1.919 0 0 0-.704-.608 1.894 1.894 0 0 0-.912-.224 1.9 1.9 0 0 0-.912.224 2.054 2.054 0 0 0-.72.608 3.072 3.072 0 0 0-.448.96c-.106.363-.16.768-.16 1.216s.054.854.16 1.216c.107.363.256.678.448.944.203.256.443.46.72.608.278.14.582.208.912.208zm5.872.896v-6.704h-1.056v-.992l1.056-.08v-1.232c0-.8.182-1.429.544-1.888.374-.458.95-.688 1.728-.688.246 0 .475.027.688.08.224.043.427.102.608.176l-.288 1.008a2.147 2.147 0 0 0-.88-.192c-.725 0-1.088.502-1.088 1.504v1.232h1.648v1.072h-1.648v6.704zm4.448 0v-7.776h1.088l.112 1.408h.048c.267-.49.587-.88.96-1.168.384-.288.8-.432 1.248-.432.31 0 .587.054.832.16l-.256 1.152a2.983 2.983 0 0 0-.352-.096 2.091 2.091 0 0 0-.4-.032c-.33 0-.677.134-1.04.4-.352.267-.661.731-.928 1.392v4.992zm8.543.192a3.95 3.95 0 0 1-1.472-.272 3.743 3.743 0 0 1-1.184-.8 3.86 3.86 0 0 1-.784-1.28c-.192-.5-.288-1.072-.288-1.712s.096-1.21.288-1.712a4.19 4.19 0 0 1 .784-1.296c.33-.352.704-.618 1.12-.8a3.059 3.059 0 0 1 1.296-.288c.49 0 .928.086 1.312.256.394.171.72.416.976.736.266.32.469.704.608 1.152a5.1 5.1 0 0 1 .208 1.504c0 .14-.006.278-.016.416 0 .128-.011.24-.032.336h-5.248c.053.832.31 1.494.768 1.984.47.48 1.077.72 1.824.72a3.12 3.12 0 0 0 1.024-.16c.32-.117.624-.266.912-.448l.464.864c-.342.214-.72.4-1.136.56s-.891.24-1.424.24zm-2.448-4.704h4.16c0-.789-.171-1.386-.512-1.792-.331-.416-.8-.624-1.408-.624a2.07 2.07 0 0 0-.8.16c-.246.107-.47.267-.672.48a2.596 2.596 0 0 0-.512.752 3.6 3.6 0 0 0-.256 1.024zm8.807 4.704c-.651 0-1.195-.192-1.632-.576-.427-.384-.64-.928-.64-1.632 0-.853.378-1.504 1.136-1.952.757-.458 1.968-.778 3.632-.96 0-.245-.027-.485-.08-.72a1.705 1.705 0 0 0-.24-.624 1.237 1.237 0 0 0-.496-.432c-.203-.117-.464-.176-.784-.176-.448 0-.87.086-1.264.256a6.186 6.186 0 0 0-1.056.576l-.512-.912a8.04 8.04 0 0 1 1.328-.672 4.337 4.337 0 0 1 1.728-.336c.949 0 1.637.294 2.064.88.426.576.64 1.35.64 2.32v4.768h-1.088l-.112-.928h-.048c-.374.31-.774.576-1.2.8-.427.214-.886.32-1.376.32zm.384-1.056c.373 0 .725-.085 1.056-.256a5.54 5.54 0 0 0 1.056-.784v-2.16c-.651.086-1.2.187-1.648.304-.438.118-.795.256-1.072.416-.267.16-.464.347-.592.56a1.31 1.31 0 0 0-.176.672c0 .448.133.768.4.96.266.192.592.288.976.288zm8.542 1.056c-.981 0-1.765-.352-2.352-1.056-.576-.704-.864-1.706-.864-3.008 0-.629.091-1.194.272-1.696.192-.512.443-.944.752-1.296s.667-.624 1.072-.816.832-.288 1.28-.288.837.08 1.168.24.667.38 1.008.656l-.064-1.328V29.61h1.328v11.392h-1.088l-.112-.912h-.048c-.309.3-.667.56-1.072.784-.395.214-.821.32-1.28.32zm.288-1.104a2.14 2.14 0 0 0 1.024-.256c.32-.18.64-.453.96-.816v-4.064c-.331-.298-.651-.506-.96-.624a2.334 2.334 0 0 0-.928-.192 1.83 1.83 0 0 0-.88.224 2.105 2.105 0 0 0-.704.608 2.922 2.922 0 0 0-.48.928 3.948 3.948 0 0 0-.176 1.216c0 .94.187 1.67.56 2.192.373.523.901.784 1.584.784zm5.931.912v-7.776h1.312v7.776zm.672-9.376a.957.957 0 0 1-.656-.24.796.796 0 0 1-.256-.608c0-.256.085-.458.256-.608.181-.16.4-.24.656-.24s.469.08.64.24c.181.15.272.352.272.608a.777.777 0 0 1-.272.608.9.9 0 0 1-.64.24zm3.266 9.376v-7.776h1.088l.112 1.12h.048a6.166 6.166 0 0 1 1.168-.928c.416-.256.896-.384 1.44-.384.821 0 1.418.256 1.792.768.384.512.576 1.27.576 2.272v4.928h-1.312V36.25c0-.736-.118-1.264-.352-1.584-.235-.33-.608-.496-1.12-.496a1.91 1.91 0 0 0-1.072.304c-.31.203-.662.502-1.056.896v5.632zm11.374 3.584a5.55 5.55 0 0 1-1.312-.144 3.154 3.154 0 0 1-1.024-.4 2.13 2.13 0 0 1-.656-.656 1.74 1.74 0 0 1-.224-.896c0-.33.101-.645.304-.944.202-.298.48-.57.832-.816v-.064a1.623 1.623 0 0 1-.496-.48c-.128-.213-.192-.474-.192-.784 0-.33.09-.618.272-.864.181-.245.373-.437.576-.576v-.064a3.34 3.34 0 0 1-.704-.848 2.51 2.51 0 0 1-.304-1.248c0-.426.074-.81.224-1.152.16-.34.373-.629.64-.864a2.73 2.73 0 0 1 .928-.56 3.384 3.384 0 0 1 1.136-.192c.213 0 .41.022.592.064.192.032.362.075.512.128h2.704v1.008h-1.6c.181.182.33.411.448.688.128.278.192.582.192.912 0 .416-.075.795-.224 1.136a2.58 2.58 0 0 1-.608.848c-.256.224-.56.4-.912.528a3.124 3.124 0 0 1-1.696.128 3.326 3.326 0 0 1-.576-.208 1.803 1.803 0 0 0-.352.4.907.907 0 0 0-.144.528c0 .246.096.448.288.608s.554.24 1.088.24h1.504c.906 0 1.584.15 2.032.448.458.288.688.758.688 1.408 0 .363-.091.704-.272 1.024-.182.331-.443.62-.784.864a3.981 3.981 0 0 1-1.248.576c-.48.15-1.024.224-1.632.224zm0-6.928c.224 0 .432-.042.624-.128a1.53 1.53 0 0 0 .528-.368c.16-.16.282-.352.368-.576.085-.234.128-.496.128-.784 0-.576-.16-1.018-.48-1.328a1.59 1.59 0 0 0-1.168-.48c-.459 0-.848.16-1.168.48-.32.31-.48.752-.48 1.328 0 .288.042.55.128.784.085.224.202.416.352.576.16.16.336.283.528.368.202.086.416.128.64.128zm.192 6.016a3.29 3.29 0 0 0 1.008-.144 2.54 2.54 0 0 0 .784-.352c.213-.138.378-.304.496-.496.117-.192.176-.389.176-.592 0-.362-.134-.613-.4-.752-.267-.138-.656-.208-1.168-.208h-1.344c-.15 0-.315-.01-.496-.032a2.149 2.149 0 0 1-.512-.096c-.278.203-.48.416-.608.64s-.192.448-.192.672c0 .416.197.747.592.992.405.246.96.368 1.664.368zm10.481-2.48a4.183 4.183 0 0 1-1.584-.304 4.938 4.938 0 0 1-1.312-.768l.656-.88a5.3 5.3 0 0 0 1.04.672 2.9 2.9 0 0 0 1.248.256c.512 0 .896-.117 1.152-.352.256-.234.384-.522.384-.864a.883.883 0 0 0-.16-.528 1.443 1.443 0 0 0-.416-.384 2.545 2.545 0 0 0-.56-.304l-.64-.256a13.264 13.264 0 0 1-.832-.32 4.013 4.013 0 0 1-.752-.448 2.465 2.465 0 0 1-.528-.624c-.139-.234-.208-.517-.208-.848 0-.309.059-.597.176-.864a2.04 2.04 0 0 1 .528-.704c.235-.202.517-.357.848-.464a3.338 3.338 0 0 1 1.12-.176c.491 0 .939.086 1.344.256.416.171.773.38 1.072.624l-.624.832c-.267-.202-.544-.368-.832-.496s-.603-.192-.944-.192c-.491 0-.853.112-1.088.336a1.075 1.075 0 0 0-.336.784.82.82 0 0 0 .144.48c.096.128.224.246.384.352.16.096.341.187.544.272.213.075.432.155.656.24.277.107.555.22.832.336.288.118.544.267.768.448.224.171.405.384.544.64.149.256.224.566.224.928 0 .32-.064.62-.192.896a2.005 2.005 0 0 1-.544.736 2.415 2.415 0 0 1-.896.496 3.547 3.547 0 0 1-1.216.192zm7.695 0c-.48 0-.938-.09-1.376-.272a3.454 3.454 0 0 1-1.136-.784 4.096 4.096 0 0 1-.8-1.28c-.192-.512-.288-1.088-.288-1.728 0-.65.096-1.226.288-1.728.203-.512.47-.944.8-1.296a3.35 3.35 0 0 1 1.136-.8 3.585 3.585 0 0 1 2.736 0c.438.182.822.448 1.152.8.331.352.592.784.784 1.296.203.502.304 1.078.304 1.728 0 .64-.101 1.216-.304 1.728a3.855 3.855 0 0 1-.784 1.28c-.33.342-.714.603-1.152.784-.426.182-.88.272-1.36.272zm0-1.088c.331 0 .635-.069.912-.208.278-.149.512-.352.704-.608a2.87 2.87 0 0 0 .464-.944c.107-.362.16-.768.16-1.216s-.053-.853-.16-1.216a2.855 2.855 0 0 0-.464-.96 1.913 1.913 0 0 0-.704-.608 1.891 1.891 0 0 0-.912-.224 1.9 1.9 0 0 0-.912.224 2.061 2.061 0 0 0-.72.608 3.081 3.081 0 0 0-.448.96c-.106.363-.16.768-.16 1.216s.054.854.16 1.216c.107.363.256.678.448.944.203.256.443.46.72.608.278.14.582.208.912.208zm5.872.896v-6.704h-1.056v-.992l1.056-.08v-1.232c0-.8.181-1.429.544-1.888.373-.458.949-.688 1.728-.688.245 0 .475.027.688.08.224.043.427.102.608.176l-.288 1.008a2.146 2.146 0 0 0-.88-.192c-.725 0-1.088.502-1.088 1.504v1.232h2.848l.16-2.176h1.088v2.176h2.112v1.072h-2.112v4.32c0 .48.091.854.272 1.12.181.256.496.384.944.384.139 0 .288-.02.448-.064.16-.042.304-.09.432-.144l.256.992a5.552 5.552 0 0 1-.704.192 2.905 2.905 0 0 1-.736.096c-.416 0-.768-.064-1.056-.192a1.887 1.887 0 0 1-.688-.528c-.171-.224-.293-.496-.368-.816s-.112-.672-.112-1.056v-4.304h-2.784v6.704zm10.508 0-2.16-7.776h1.344l1.152 4.496c.085.374.165.736.24 1.088s.149.71.224 1.072h.064c.085-.362.171-.72.256-1.072.085-.362.176-.725.272-1.088l1.2-4.496h1.28l1.216 4.496c.096.374.187.736.272 1.088.096.352.187.71.272 1.072h.064c.085-.362.165-.72.24-1.072s.155-.714.24-1.088l1.136-4.496h1.248l-2.08 7.776h-1.6l-1.12-4.176a52.906 52.906 0 0 1-.272-1.104 34.72 34.72 0 0 0-.256-1.136h-.064a99.98 99.98 0 0 1-.256 1.152c-.085.363-.181.731-.288 1.104l-1.088 4.16zm11.888.192c-.65 0-1.194-.192-1.632-.576-.426-.384-.64-.928-.64-1.632 0-.853.379-1.504 1.136-1.952.758-.458 1.968-.778 3.632-.96a3.2 3.2 0 0 0-.08-.72 1.67 1.67 0 0 0-.24-.624 1.224 1.224 0 0 0-.496-.432c-.202-.117-.464-.176-.784-.176-.448 0-.869.086-1.264.256a6.263 6.263 0 0 0-1.056.576l-.512-.912a8.121 8.121 0 0 1 1.328-.672 4.344 4.344 0 0 1 1.728-.336c.95 0 1.638.294 2.064.88.427.576.64 1.35.64 2.32v4.768h-1.088l-.112-.928h-.048a6.85 6.85 0 0 1-1.2.8 3.03 3.03 0 0 1-1.376.32zm.384-1.056c.374 0 .726-.085 1.056-.256a5.56 5.56 0 0 0 1.056-.784v-2.16c-.65.086-1.2.187-1.648.304a4.517 4.517 0 0 0-1.072.416 1.68 1.68 0 0 0-.592.56 1.32 1.32 0 0 0-.176.672c0 .448.134.768.4.96.267.192.592.288.976.288zm5.887.864v-7.776h1.088l.112 1.408h.048c.266-.49.586-.88.96-1.168.384-.288.8-.432 1.248-.432.309 0 .586.054.832.16l-.256 1.152a3.02 3.02 0 0 0-.352-.096 2.094 2.094 0 0 0-.4-.032c-.331 0-.678.134-1.04.4-.352.267-.662.731-.928 1.392v4.992zm8.542.192a3.97 3.97 0 0 1-1.472-.272 3.75 3.75 0 0 1-1.184-.8 3.871 3.871 0 0 1-.784-1.28c-.192-.5-.288-1.072-.288-1.712s.096-1.21.288-1.712a4.21 4.21 0 0 1 .784-1.296 3.39 3.39 0 0 1 1.12-.8 3.059 3.059 0 0 1 1.296-.288 3.2 3.2 0 0 1 1.312.256c.395.171.72.416.976.736.267.32.47.704.608 1.152.139.448.208.95.208 1.504 0 .14-.005.278-.016.416 0 .128-.01.24-.032.336h-5.248c.054.832.31 1.494.768 1.984.47.48 1.078.72 1.824.72a3.12 3.12 0 0 0 1.024-.16c.32-.117.624-.266.912-.448l.464.864c-.341.214-.72.4-1.136.56s-.89.24-1.424.24zm-2.448-4.704h4.16c0-.789-.17-1.386-.512-1.792-.33-.416-.8-.624-1.408-.624-.277 0-.544.054-.8.16a2.065 2.065 0 0 0-.672.48 2.618 2.618 0 0 0-.512.752c-.128.3-.213.64-.256 1.024z"/></g></svg>