<svg xmlns="http://www.w3.org/2000/svg" width="100" height="100" fill="none" viewBox="0 0 100 100"><circle cx="50" cy="50" r="50" fill="#039"/><g fill="#fc0"><path d="m50.1 12.005-1.693 5.213 2.607.847z"/><path d="m50.1 12.005 1.695 5.213-2.607.847z"/><path d="M55.341 15.792H49.86v2.74z"/><path d="m55.341 15.792-4.435 3.222-1.61-2.218z"/><path d="m53.336 21.92-1.694-5.212-2.607.847z"/><path d="M53.336 21.92 48.9 18.7l1.611-2.218z"/><path d="M44.88 15.792h5.482v2.74z"/><path d="m44.88 15.792 4.435 3.222 1.611-2.218z"/><path d="m46.886 21.92 1.694-5.212 2.607.847z"/><path d="m46.886 21.92 4.435-3.221-1.611-2.218zM50.1 77.782l-1.693 5.213 2.607.847z"/><path d="m50.1 77.782 1.695 5.213-2.607.847z"/><path d="M55.341 81.57H49.86v2.74z"/><path d="m55.341 81.57-4.435 3.221-1.61-2.217z"/><path d="m53.336 87.698-1.694-5.213-2.607.847z"/><path d="M53.336 87.698 48.9 84.476l1.611-2.217z"/><path d="M44.88 81.57h5.482v2.74z"/><path d="m44.88 81.57 4.435 3.221 1.611-2.217z"/><path d="m46.886 87.698 1.694-5.213 2.607.847z"/><path d="m46.886 87.698 4.435-3.222-1.611-2.217zM17.22 44.893l-1.694 5.214 2.607.846z"/><path d="m17.22 44.893 1.694 5.214-2.607.846z"/><path d="M22.46 48.68h-5.48v2.741z"/><path d="m22.46 48.68-4.434 3.222-1.611-2.217z"/><path d="m20.455 54.81-1.694-5.214-2.606.847z"/><path d="m20.455 54.81-4.435-3.222 1.611-2.218z"/><path d="M12 48.68h5.481v2.741z"/><path d="m12 48.68 4.435 3.222 1.61-2.217z"/><path d="m14.005 54.81 1.694-5.214 2.607.847z"/><path d="m14.005 54.81 4.435-3.222-1.611-2.218zm16.44-28.482 4.434-3.222-1.61-2.218z"/><path d="m30.445 26.328 1.694-5.213 2.606.847z"/><path d="m28.477 20.2 4.434 3.222 1.611-2.217z"/><path d="M28.477 20.2h5.48v2.74z"/><path d="m33.679 16.411-1.694 5.214 2.606.847z"/><path d="m33.679 16.411 1.694 5.214-2.607.847z"/><path d="m36.893 26.328-4.434-3.222 1.61-2.218z"/><path d="M36.893 26.328 35.2 21.115l-2.607.847z"/><path d="m38.88 20.2-4.435 3.222-1.61-2.217z"/><path d="M38.88 20.2h-5.482v2.74zM24.844 38.366l-1.694-5.214-2.606.847z"/><path d="m24.844 38.366-4.434-3.222 1.61-2.217z"/><path d="m18.413 38.366 4.434-3.222-1.61-2.218z"/><path d="m18.413 38.366 1.693-5.214 2.607.847z"/><path d="m16.425 32.238 4.435 3.222 1.61-2.218z"/><path d="M16.425 32.238h5.481v2.74z"/><path d="m26.83 32.238-4.435 3.222-1.611-2.218z"/><path d="M26.83 32.238h-5.482v2.74z"/><path d="m21.627 28.45 1.694 5.213-2.606.847z"/><path d="m21.627 28.45-1.693 5.213 2.606.847zm5.227 36.675h-5.482v2.741z"/><path d="m26.854 65.125-4.435 3.222-1.611-2.217z"/><path d="m24.845 71.254-1.694-5.213-2.607.847z"/><path d="m24.845 71.254-4.435-3.222 1.611-2.217z"/><path d="m18.413 71.254 4.435-3.222-1.611-2.217z"/><path d="m18.413 71.254 1.694-5.213 2.607.847z"/><path d="m21.648 61.338 1.693 5.213-2.606.847z"/><path d="m21.648 61.338-1.694 5.213 2.606.847z"/><path d="M16.408 65.125h5.482v2.741z"/><path d="m16.408 65.125 4.435 3.222 1.61-2.217zm22.478 12.038h-5.482v2.741z"/><path d="m38.886 77.163-4.435 3.222-1.61-2.217z"/><path d="m36.877 83.292-1.694-5.213-2.606.847z"/><path d="m36.877 83.292-4.434-3.222 1.61-2.217z"/><path d="m30.446 83.292 4.434-3.222-1.61-2.217z"/><path d="m30.446 83.292 1.693-5.213 2.607.847z"/><path d="m33.68 73.376 1.693 5.213-2.606.847z"/><path d="m33.68 73.376-1.694 5.213 2.606.847z"/><path d="M28.44 77.163h5.482v2.741z"/><path d="m28.44 77.163 4.435 3.222 1.61-2.217zm54.562-32.27 1.694 5.214-2.607.847z"/><path d="m83.002 44.893-1.694 5.214 2.607.847z"/><path d="M77.762 48.68h5.481v2.741z"/><path d="m77.762 48.68 4.434 3.222 1.611-2.217z"/><path d="m79.767 54.81 1.694-5.214 2.606.847z"/><path d="m79.767 54.81 4.434-3.222-1.61-2.218z"/><path d="M88.222 48.68H82.74v2.741z"/><path d="m88.222 48.68-4.435 3.222-1.61-2.217z"/><path d="m86.217 54.81-1.694-5.214-2.607.847z"/><path d="m86.217 54.81-4.435-3.222 1.611-2.218zm-16.44-28.482-4.434-3.222 1.61-2.218z"/><path d="m69.777 26.328-1.694-5.213-2.606.847z"/><path d="m71.745 20.2-4.434 3.222-1.611-2.217z"/><path d="M71.745 20.2h-5.481v2.74z"/><path d="m66.543 16.411 1.694 5.214-2.606.847z"/><path d="m66.543 16.411-1.694 5.214 2.607.847z"/><path d="m63.328 26.328 4.435-3.222-1.61-2.218z"/><path d="m63.328 26.328 1.694-5.213 2.607.847z"/><path d="m61.342 20.2 4.435 3.222 1.61-2.217z"/><path d="M61.342 20.2h5.482v2.74zm14.036 18.166 1.694-5.213 2.606.847z"/><path d="m75.378 38.366 4.434-3.222-1.61-2.217z"/><path d="m81.808 38.366-4.434-3.222 1.61-2.217z"/><path d="m81.808 38.366-1.693-5.214-2.607.847z"/><path d="M83.796 32.238 79.36 35.46l-1.61-2.218z"/><path d="M83.796 32.238h-5.481v2.741z"/><path d="m73.392 32.238 4.435 3.222 1.61-2.217z"/><path d="M73.392 32.238h5.481v2.741z"/><path d="m78.596 28.45-1.694 5.213 2.606.847z"/><path d="m78.596 28.45 1.694 5.213-2.607.847zm-5.228 36.676h5.482v2.74z"/><path d="m73.368 65.126 4.435 3.221 1.611-2.217z"/><path d="m75.377 71.254 1.694-5.213 2.607.847z"/><path d="m75.377 71.254 4.435-3.222-1.611-2.217z"/><path d="m81.809 71.254-4.435-3.222 1.611-2.217z"/><path d="m81.809 71.254-1.694-5.213-2.607.847z"/><path d="m78.575 61.338-1.694 5.213 2.607.847z"/><path d="m78.575 61.338 1.694 5.213-2.607.847z"/><path d="M83.814 65.126h-5.481v2.74z"/><path d="m83.814 65.126-4.435 3.221-1.61-2.217zM61.336 77.163h5.482v2.741z"/><path d="m61.336 77.163 4.435 3.222 1.61-2.217z"/><path d="m63.345 83.292 1.694-5.213 2.606.847z"/><path d="m63.345 83.292 4.435-3.222-1.612-2.217z"/><path d="m69.776 83.292-4.434-3.222 1.61-2.217z"/><path d="m69.776 83.292-1.693-5.213-2.607.847z"/><path d="m66.542 73.376-1.694 5.213 2.607.847z"/><path d="m66.542 73.376 1.694 5.213-2.606.847z"/><path d="M71.782 77.163H66.3v2.741z"/><path d="m71.782 77.163-4.435 3.222-1.611-2.217z"/></g></svg>