<svg xmlns="http://www.w3.org/2000/svg" width="24" height="24" fill="none" viewBox="0 0 24 24"><mask id="a" width="24" height="24" x="0" y="0" maskUnits="userSpaceOnUse"><path fill="#fff" fill-rule="evenodd" d="M12 24c6.627 0 12-5.373 12-12S18.627 0 12 0 0 5.373 0 12s5.373 12 12 12z" clip-rule="evenodd"/></mask><path fill="#45a8fc" fill-rule="evenodd" d="M12 24c6.627 0 12-5.373 12-12S18.627 0 12 0 0 5.373 0 12s5.373 12 12 12z" clip-rule="evenodd"/><g mask="url(#a)"><path fill="#fff" d="M42 13.2v2.4c-1.986 0-2.899-.685-3.998-2.334C37.301 12.216 37.014 12 36 12s-1.301.215-2.002 1.266c-1.1 1.65-2.012 2.334-3.998 2.334s-2.899-.685-3.998-2.334C25.302 12.216 25.014 12 24 12s-1.301.215-2.002 1.266c-1.1 1.65-2.012 2.334-3.998 2.334s-2.899-.685-3.998-2.334C13.302 12.216 13.014 12 12 12s-1.301.215-2.002 1.266C8.898 14.916 7.986 15.6 6 15.6s-2.899-.685-3.998-2.334C1.302 12.216 1.014 12 0 12s-1.301.215-2.002 1.266C-3.102 14.916-4.014 15.6-6 15.6v-2.4c1.014 0 1.301-.215 2.002-1.266C-2.898 10.284-1.986 9.6 0 9.6s2.899.685 3.998 2.334c.7 1.05.988 1.266 2.002 1.266s1.301-.215 2.002-1.266C9.102 10.284 10.014 9.6 12 9.6s2.899.685 3.998 2.334c.7 1.05.988 1.266 2.002 1.266s1.301-.215 2.002-1.266C21.102 10.284 22.014 9.6 24 9.6s2.899.685 3.998 2.334c.7 1.05.988 1.266 2.002 1.266s1.301-.215 2.002-1.266C33.102 10.284 34.014 9.6 36 9.6s2.899.685 3.998 2.334c.7 1.05.988 1.266 2.002 1.266z"/></g></svg>