<svg xmlns="http://www.w3.org/2000/svg" width="500" height="400" fill="none" viewBox="0 0 500 400"><g clip-path="url(#a)"><rect width="500" height="400" fill="#F8F9FA" rx="12"/><rect width="500" height="400" fill="#fff" rx="12"/><g filter="url(#b)"><path fill="#485263" d="M0 80h120v320H0z"/></g><g filter="url(#c)"><path fill="#1F252F" d="M0 0h500v50H0z"/></g><rect width="10" height="10" x="470" y="20" fill="#fff" rx="5"/><rect width="10" height="10" x="448" y="20" fill="#fff" rx="5"/><rect width="10" height="10" x="426" y="20" fill="#fff" rx="5"/><g filter="url(#d)"><path fill="#2E3644" d="M0 50h500v30H0z"/></g><path fill="#408727" d="M0 104h120v24H0z"/><path fill="#2E3644" d="M0 376h120v24H0z"/><g clip-path="url(#e)"><path fill="#45A1FC" d="M460 370c0-5.523 4.477-10 10-10s10 4.477 10 10-4.477 10-10 10-10-4.477-10-10z"/><path fill="#45A1FC" fill-rule="evenodd" d="M470 380c5.523 0 10-4.477 10-10s-4.477-10-10-10-10 4.477-10 10 4.477 10 10 10z" clip-rule="evenodd"/><path fill="#fff" d="M495 371v2c-1.655 0-2.416-.571-3.332-1.945-.584-.876-.823-1.055-1.668-1.055s-1.084.179-1.668 1.055c-.916 1.374-1.677 1.945-3.332 1.945-1.655 0-2.416-.571-3.332-1.945-.584-.876-.823-1.055-1.668-1.055s-1.084.179-1.668 1.055c-.916 1.374-1.677 1.945-3.332 1.945-1.655 0-2.416-.571-3.332-1.945-.584-.876-.823-1.055-1.668-1.055s-1.084.179-1.668 1.055c-.916 1.374-1.677 1.945-3.332 1.945-1.655 0-2.416-.571-3.332-1.945-.584-.876-.823-1.055-1.668-1.055s-1.084.179-1.668 1.055c-.916 1.374-1.677 1.945-3.332 1.945v-2c.845 0 1.084-.179 1.668-1.055.916-1.374 1.677-1.945 3.332-1.945 1.655 0 2.416.571 3.332 1.945.584.876.823 1.055 1.668 1.055s1.084-.179 1.668-1.055c.916-1.374 1.677-1.945 3.332-1.945 1.655 0 2.416.571 3.332 1.945.584.876.823 1.055 1.668 1.055s1.084-.179 1.668-1.055c.916-1.374 1.677-1.945 3.332-1.945 1.655 0 2.416.571 3.332 1.945.584.876.823 1.055 1.668 1.055s1.084-.179 1.668-1.055c.916-1.374 1.677-1.945 3.332-1.945 1.655 0 2.416.571 3.332 1.945.584.876.823 1.055 1.668 1.055z"/></g><path fill="#fff" d="M34.972 14.818c-2.993-1.167-13.841-1.598-13.86 4.875-3.165 2.026-5.26 5.331-5.26 8.864a7.731 7.731 0 0 0 7.734 7.73 7.732 7.732 0 0 0 2.753-14.958c-.56-.216-1.776-.598-2.747-.516-1.386.881-3.076 2.693-3.875 4.497 1.188-1.425 3.044-2.05 4.689-1.782a5.095 5.095 0 0 1 4.27 5.027 5.101 5.101 0 0 1-5.104 5.094 5.078 5.078 0 0 1-3.875-1.784c-1.372-1.615-1.726-3.366-1.443-5.077.977-6 8.091-9.412 13.38-10.723-1.726.914-4.837 2.413-7.015 4.05 6.35 2.452 7.378-2.903 10.353-5.297z"/><rect width="60" height="4" x="10" y="90" fill="#fff" rx="2"/><rect width="60" height="4" x="10" y="138" fill="#fff" rx="2"/><rect width="60" height="4" x="10" y="114" fill="#fff" rx="2"/><path fill="#D0D2D8" fill-rule="evenodd" d="M209 151a3 3 0 0 1 3-3h194a3 3 0 1 1 0 6H212a3 3 0 0 1-3-3zm0 26a3 3 0 0 1 3-3h194a3 3 0 1 1 0 6H212a3 3 0 0 1-3-3zm3 23a3 3 0 1 0 0 6h194a3 3 0 1 0 0-6H212zm-3 29a3 3 0 0 1 3-3h194a3 3 0 1 1 0 6H212a3 3 0 0 1-3-3zm3 23a3 3 0 1 0 0 6h194a3 3 0 1 0 0-6H212zm-3 29a3 3 0 0 1 3-3h194a3 3 0 1 1 0 6H212a3 3 0 0 1-3-3zm3 23a3 3 0 1 0 0 6h134a3 3 0 1 0 0-6H212z" clip-rule="evenodd"/><rect width="182" height="16" x="120" y="57" fill="#fff" rx="8"/><path fill="#408727" d="M211 59h83a6 6 0 1 1 0 12h-83V59z"/><path fill="#fff" d="M62.553 26.01c0 .836-.14 1.566-.422 2.191-.281.621-.68 1.096-1.196 1.424-.515.328-1.117.492-1.804.492-.672 0-1.268-.164-1.787-.492-.52-.332-.924-.803-1.213-1.412-.285-.613-.432-1.322-.44-2.127v-.615c0-.82.143-1.545.428-2.174.285-.629.688-1.11 1.207-1.442.524-.335 1.121-.503 1.793-.503.684 0 1.285.166 1.805.498.523.328.926.806 1.207 1.435.281.625.422 1.354.422 2.186v.539zm-1.12-.551c0-1.012-.203-1.787-.609-2.326-.406-.543-.974-.815-1.705-.815-.71 0-1.271.272-1.681.815-.407.539-.616 1.289-.628 2.25v.627c0 .98.206 1.752.616 2.314.414.559.982.838 1.705.838.726 0 1.289-.264 1.687-.79.399-.532.604-1.292.616-2.28v-.633zm4.73 3.07 1.57-4.869h1.107L66.566 30h-.826l-2.297-6.34h1.108l1.611 4.87zm6.269 1.588c-.86 0-1.559-.281-2.098-.844-.54-.566-.809-1.322-.809-2.267v-.2c0-.628.12-1.189.358-1.681a2.815 2.815 0 0 1 1.008-1.16 2.536 2.536 0 0 1 1.406-.422c.824 0 1.465.271 1.922.814.457.543.685 1.32.685 2.332v.452H70.61c.016.625.198 1.13.545 1.517.352.383.797.574 1.336.574.383 0 .707-.078.973-.234.266-.156.498-.363.697-.621l.662.516c-.531.816-1.328 1.224-2.39 1.224zm-.135-5.683c-.438 0-.805.16-1.102.48-.297.316-.48.762-.55 1.336h3.175v-.082c-.03-.55-.18-.977-.445-1.277-.266-.305-.625-.457-1.078-.457zm6.931.199a3.253 3.253 0 0 0-.533-.041c-.71 0-1.193.303-1.447.908V30h-1.084v-6.34h1.055l.017.733c.356-.567.86-.85 1.512-.85.211 0 .371.027.48.082v1.008zM81.409 30h-1.084v-9h1.084v9zm4.371.117c-.86 0-1.558-.281-2.097-.844-.54-.566-.809-1.322-.809-2.267v-.2c0-.628.12-1.189.358-1.681a2.815 2.815 0 0 1 1.007-1.16 2.535 2.535 0 0 1 1.406-.422c.825 0 1.465.271 1.922.814.457.543.686 1.32.686 2.332v.452h-4.295c.016.625.197 1.13.545 1.517.352.383.797.574 1.336.574.383 0 .707-.078.973-.234.265-.156.498-.363.697-.621l.662.516c-.531.816-1.328 1.224-2.39 1.224zm-.135-5.683c-.437 0-.804.16-1.101.48-.297.316-.48.762-.55 1.336h3.175v-.082c-.031-.55-.18-.977-.445-1.277-.266-.305-.625-.457-1.079-.457zM93.426 30c-.063-.125-.114-.348-.153-.668-.504.523-1.105.785-1.804.785-.625 0-1.139-.176-1.541-.527a1.728 1.728 0 0 1-.598-1.348c0-.66.25-1.172.75-1.535.504-.367 1.211-.55 2.121-.55h1.055v-.499c0-.379-.113-.68-.34-.902-.227-.227-.56-.34-1.002-.34-.387 0-.71.098-.973.293-.261.195-.392.432-.392.709h-1.09c0-.316.111-.621.334-.914a2.31 2.31 0 0 1 .914-.703c.387-.172.81-.258 1.272-.258.73 0 1.302.184 1.716.55.414.364.63.866.645 1.507v2.918c0 .582.074 1.044.222 1.388V30h-1.136zm-1.799-.826c.34 0 .662-.088.967-.264.304-.176.525-.404.662-.685v-1.301h-.85c-1.328 0-1.992.389-1.992 1.166 0 .34.113.605.34.797.227.191.517.287.873.287zm4.945.826v-5.502H95.57v-.838h1.002v-.65c0-.68.182-1.205.545-1.576.364-.372.877-.557 1.541-.557.25 0 .498.033.744.1l-.058.878a3.11 3.11 0 0 0-.586-.052c-.352 0-.623.103-.815.31-.191.203-.287.496-.287.88v.667h1.354v.838h-1.354V30h-1.084z"/></g><defs><filter id="b" width="130" height="330" x="-5" y="77" color-interpolation-filters="sRGB" filterUnits="userSpaceOnUse"><feFlood flood-opacity="0" result="BackgroundImageFix"/><feColorMatrix in="SourceAlpha" values="0 0 0 0 0 0 0 0 0 0 0 0 0 0 0 0 0 0 127 0"/><feMorphology in="SourceAlpha" radius="1" result="effect1_dropShadow"/><feOffset dy="1"/><feGaussianBlur stdDeviation="2"/><feColorMatrix values="0 0 0 0 0 0 0 0 0 0 0 0 0 0 0 0 0 0 0.04 0"/><feBlend in2="BackgroundImageFix" result="effect1_dropShadow"/><feColorMatrix in="SourceAlpha" values="0 0 0 0 0 0 0 0 0 0 0 0 0 0 0 0 0 0 127 0"/><feMorphology in="SourceAlpha" radius="1" result="effect2_dropShadow"/><feOffset dy="2"/><feGaussianBlur stdDeviation="3"/><feColorMatrix values="0 0 0 0 0 0 0 0 0 0 0 0 0 0 0 0 0 0 0.16 0"/><feBlend in2="effect1_dropShadow" result="effect2_dropShadow"/><feBlend in="SourceGraphic" in2="effect2_dropShadow" result="shape"/></filter><filter id="c" width="510" height="60" x="-5" y="-3" color-interpolation-filters="sRGB" filterUnits="userSpaceOnUse"><feFlood flood-opacity="0" result="BackgroundImageFix"/><feColorMatrix in="SourceAlpha" values="0 0 0 0 0 0 0 0 0 0 0 0 0 0 0 0 0 0 127 0"/><feMorphology in="SourceAlpha" radius="1" result="effect1_dropShadow"/><feOffset dy="1"/><feGaussianBlur stdDeviation="2"/><feColorMatrix values="0 0 0 0 0 0 0 0 0 0 0 0 0 0 0 0 0 0 0.04 0"/><feBlend in2="BackgroundImageFix" result="effect1_dropShadow"/><feColorMatrix in="SourceAlpha" values="0 0 0 0 0 0 0 0 0 0 0 0 0 0 0 0 0 0 127 0"/><feMorphology in="SourceAlpha" radius="1" result="effect2_dropShadow"/><feOffset dy="2"/><feGaussianBlur stdDeviation="3"/><feColorMatrix values="0 0 0 0 0 0 0 0 0 0 0 0 0 0 0 0 0 0 0.16 0"/><feBlend in2="effect1_dropShadow" result="effect2_dropShadow"/><feBlend in="SourceGraphic" in2="effect2_dropShadow" result="shape"/></filter><filter id="d" width="510" height="40" x="-5" y="47" color-interpolation-filters="sRGB" filterUnits="userSpaceOnUse"><feFlood flood-opacity="0" result="BackgroundImageFix"/><feColorMatrix in="SourceAlpha" values="0 0 0 0 0 0 0 0 0 0 0 0 0 0 0 0 0 0 127 0"/><feMorphology in="SourceAlpha" radius="1" result="effect1_dropShadow"/><feOffset dy="1"/><feGaussianBlur stdDeviation="2"/><feColorMatrix values="0 0 0 0 0 0 0 0 0 0 0 0 0 0 0 0 0 0 0.04 0"/><feBlend in2="BackgroundImageFix" result="effect1_dropShadow"/><feColorMatrix in="SourceAlpha" values="0 0 0 0 0 0 0 0 0 0 0 0 0 0 0 0 0 0 127 0"/><feMorphology in="SourceAlpha" radius="1" result="effect2_dropShadow"/><feOffset dy="2"/><feGaussianBlur stdDeviation="3"/><feColorMatrix values="0 0 0 0 0 0 0 0 0 0 0 0 0 0 0 0 0 0 0.16 0"/><feBlend in2="effect1_dropShadow" result="effect2_dropShadow"/><feBlend in="SourceGraphic" in2="effect2_dropShadow" result="shape"/></filter><clipPath id="a"><rect width="500" height="400" fill="#fff" rx="12"/></clipPath><clipPath id="e"><path fill="#fff" d="M460 370c0-5.523 4.477-10 10-10s10 4.477 10 10-4.477 10-10 10-10-4.477-10-10z"/></clipPath></defs></svg>