<svg xmlns="http://www.w3.org/2000/svg" width="20" height="20" fill="none" viewBox="0 0 20 20"><path fill="#f5a523" fill-rule="evenodd" d="M10 20c5.523 0 10-4.477 10-10S15.523 0 10 0 0 4.477 0 10s4.477 10 10 10zM7.136 9.77c.224 0 .453-.065.686-.196s.448-.36.644-.686c-.093-.7-.268-1.183-.525-1.449s-.544-.399-.861-.399c-.299 0-.56.114-.784.343s-.336.595-.336 1.099c0 .476.112.81.336 1.001s.504.287.84.287zm-1.834 2.66c.15.168.35.315.602.441s.509.189.77.189c.252 0 .485-.047.7-.14s.404-.25.567-.469.294-.504.392-.854.156-.786.175-1.309c-.112.15-.243.282-.392.399s-.303.215-.462.294-.317.14-.476.182-.308.063-.448.063c-.383 0-.735-.056-1.057-.168s-.6-.28-.833-.504-.418-.509-.553-.854c-.135-.345-.203-.751-.203-1.218 0-.457.08-.87.238-1.239s.371-.684.637-.945.579-.46.938-.595A3.21 3.21 0 0 1 7.038 5.5c.43 0 .847.084 1.253.252s.765.43 1.078.784.565.81.756 1.365c.191.555.287 1.225.287 2.009 0 .83-.1 1.55-.301 2.156-.2.607-.467 1.106-.798 1.498-.331.392-.714.684-1.148.875s-.884.287-1.351.287c-.588 0-1.099-.107-1.533-.322s-.791-.462-1.071-.742zM13 10.5h-2v-1h2v-2h1.036v2.076H16v.924h-2v2h-1z" clip-rule="evenodd"/></svg>