<svg xmlns="http://www.w3.org/2000/svg" width="20" height="20" fill="none" viewBox="0 0 20 20"><path fill="#f5a523" fill-rule="evenodd" d="M10 20c5.523 0 10-4.477 10-10S15.523 0 10 0 0 4.477 0 10s4.477 10 10 10zm-1.03-7.031c-.27-.22-.406-.525-.406-.917 0-.27.065-.527.196-.77.13-.243.294-.457.49-.644.28.121.534.233.763.336.229.103.427.212.595.329s.296.245.385.385.133.308.133.504c0 .373-.112.651-.336.833s-.509.273-.854.273c-.373 0-.695-.11-.966-.329zM11 8.076c0 .448-.182.882-.546 1.302-.457-.177-.826-.369-1.106-.574s-.42-.49-.42-.854c0-.345.098-.602.294-.77s.43-.252.7-.252c.336 0 .6.105.791.315s.287.488.287.833zM7.241 10.96c-.294.345-.441.789-.441 1.33 0 .364.077.695.231.994s.369.555.644.77c.275.215.602.38.98.497s.791.175 1.239.175c.476 0 .908-.063 1.295-.189s.719-.299.994-.518.488-.478.637-.777.224-.625.224-.98c0-.588-.15-1.064-.448-1.428s-.663-.663-1.092-.896v-.056c.308-.205.579-.474.812-.805.233-.331.35-.712.35-1.141 0-.364-.065-.698-.196-1.001s-.313-.56-.546-.77-.518-.373-.854-.49-.705-.175-1.106-.175c-.41 0-.791.056-1.141.168-.35.112-.651.275-.903.49s-.448.474-.588.777-.21.642-.21 1.015c0 .476.112.88.336 1.211.224.331.509.628.854.889v.056a3.64 3.64 0 0 0-1.071.854z" clip-rule="evenodd"/></svg>