<svg xmlns="http://www.w3.org/2000/svg" width="500" height="400" fill="none" viewBox="0 0 500 400"><g clip-path="url(#a)"><path fill="#F8F9FA" d="M0 12C0 5.373 5.373 0 12 0h476c6.627 0 12 5.373 12 12v376c0 6.627-5.373 12-12 12H12c-6.627 0-12-5.373-12-12V12z"/><rect width="500" height="400" fill="#F8F9FA" rx="12"/><g filter="url(#b)"><path fill="#fff" d="M0 60h120v340H0z"/></g><g filter="url(#c)"><path fill="#fff" d="M160 115h300v230H160z"/></g><g filter="url(#d)"><path fill="#45A1FC" d="M10 72h100v72H10z"/></g><g filter="url(#e)"><path fill="#45A1FC" d="M10 156h100v72H10z"/></g><g filter="url(#f)"><path fill="#45A1FC" d="M10 240h100v72H10z"/></g><path fill="#fff" fill-rule="evenodd" d="M37 182a3 3 0 1 0 0 6h46a3 3 0 1 0 0-6H37zm9 14a3 3 0 1 0 0 6h27.96a3 3 0 1 0 0-6H46zm-9 70a3 3 0 1 0 0 6h46a3 3 0 1 0 0-6H37zm9 14a3 3 0 1 0 0 6h27.96a3 3 0 1 0 0-6H46z" clip-rule="evenodd"/><g filter="url(#g)"><path fill="#fff" d="M0 0h500v60H0z"/></g><path fill="#fff" d="M8 8h44v44H8z"/><path fill="#F5BA16" fill-rule="evenodd" d="M20.098 13.5h13.2l8.8 8.8v22a2.2 2.2 0 0 1-2.2 2.2h-19.8a2.2 2.2 0 0 1-2.2-2.2V15.7a2.2 2.2 0 0 1 2.2-2.2z" clip-rule="evenodd"/><mask id="h" width="26" height="34" x="17" y="13" maskUnits="userSpaceOnUse"><path fill="#fff" fill-rule="evenodd" d="M20.098 13.5h13.2l8.8 8.8v22a2.2 2.2 0 0 1-2.2 2.2h-19.8a2.2 2.2 0 0 1-2.2-2.2V15.7a2.2 2.2 0 0 1 2.2-2.2z" clip-rule="evenodd"/></mask><g mask="url(#h)"><path fill="url(#i)" fill-rule="evenodd" d="m33.3 13.5 8.8 8.8v9.35l-8.25-10.12-.55-8.03z" clip-rule="evenodd"/><g filter="url(#j)"><path fill="#FADC86" fill-rule="evenodd" d="m33.3 13.5 8.8 8.8h-6.6a2.2 2.2 0 0 1-2.2-2.2v-6.6z" clip-rule="evenodd"/></g><path fill="#fff" fill-rule="evenodd" d="M25.05 28.68a1.1 1.1 0 0 0-1.1 1.1v9.9a1.1 1.1 0 0 0 1.1 1.1h9.9a1.1 1.1 0 0 0 1.1-1.1v-9.9a1.1 1.1 0 0 0-1.1-1.1h-9.9zm9.46 3.41h-9.02v5.28h9.02v-5.28z" clip-rule="evenodd"/></g><path fill="#F5BA16" d="M387 16h93v28h-93z"/><path stroke="#DADCE0" d="M278.5 16.5h92v27h-92z"/><path fill="#000" d="M67.29 35.88c-.29.415-.694.725-1.214.932-.515.204-1.117.305-1.804.305-.696 0-1.313-.162-1.852-.486a3.298 3.298 0 0 1-1.254-1.395c-.293-.601-.443-1.298-.451-2.091V32.4c0-1.285.299-2.28.896-2.988.602-.707 1.446-1.06 2.532-1.06.89 0 1.607.228 2.15.685.543.453.875 1.098.996 1.934h-1.125c-.21-1.13-.883-1.694-2.016-1.694-.753 0-1.326.266-1.716.797-.387.528-.582 1.293-.586 2.297v.697c0 .957.219 1.72.656 2.285.438.563 1.03.844 1.775.844.422 0 .791-.047 1.108-.14a1.71 1.71 0 0 0 .785-.475v-1.916h-1.975v-.914h3.094v3.129zm1.423-2.108c0-.622.121-1.18.363-1.676a2.758 2.758 0 0 1 1.02-1.149 2.79 2.79 0 0 1 1.494-.404c.863 0 1.56.299 2.092.896.535.598.802 1.393.802 2.385v.076c0 .618-.119 1.172-.357 1.665a2.67 2.67 0 0 1-1.014 1.142c-.437.273-.941.41-1.511.41-.86 0-1.557-.299-2.092-.896-.532-.598-.797-1.389-.797-2.373v-.076zm1.09.128c0 .703.162 1.268.486 1.694.328.425.766.638 1.313.638.55 0 .988-.214 1.312-.644.324-.434.486-1.04.486-1.816 0-.696-.166-1.258-.498-1.688a1.564 1.564 0 0 0-1.312-.65c-.535 0-.967.212-1.295.638-.328.426-.492 1.035-.492 1.828zm5.754-.128c0-.622.12-1.18.363-1.676a2.758 2.758 0 0 1 1.02-1.149 2.79 2.79 0 0 1 1.494-.404c.863 0 1.56.299 2.091.896.535.598.803 1.393.803 2.385v.076c0 .618-.119 1.172-.357 1.665a2.67 2.67 0 0 1-1.014 1.142c-.438.273-.941.41-1.512.41-.86 0-1.556-.299-2.091-.896-.532-.598-.797-1.389-.797-2.373v-.076zm1.09.128c0 .703.162 1.268.486 1.694.328.425.765.638 1.312.638.551 0 .989-.214 1.313-.644.324-.434.486-1.04.486-1.816 0-.696-.166-1.258-.498-1.688a1.564 1.564 0 0 0-1.312-.65c-.536 0-.967.212-1.295.638-.328.426-.492 1.035-.492 1.828zm5.783-.123c0-.988.228-1.773.685-2.355.457-.586 1.063-.879 1.817-.879.773 0 1.377.273 1.81.82l.053-.703h.99v6.188c0 .82-.244 1.467-.732 1.94-.485.472-1.137.708-1.957.708-.457 0-.905-.098-1.342-.293-.438-.195-.772-.463-1.002-.803l.563-.65c.464.574 1.033.861 1.704.861.528 0 .938-.148 1.231-.445.297-.297.445-.715.445-1.254v-.545c-.433.5-1.025.75-1.775.75-.742 0-1.344-.299-1.805-.896-.457-.598-.685-1.412-.685-2.444zm1.09.123c0 .715.146 1.278.439 1.688.293.406.703.61 1.23.61.684 0 1.186-.311 1.506-.932V32.37c-.332-.605-.83-.908-1.494-.908-.527 0-.94.205-1.236.615-.297.41-.446 1.018-.446 1.822zm7.084 3.1h-1.085v-9h1.084v9zm4.37.117c-.859 0-1.558-.281-2.097-.844-.54-.566-.809-1.322-.809-2.267v-.2c0-.628.12-1.189.358-1.681a2.815 2.815 0 0 1 1.008-1.16 2.535 2.535 0 0 1 1.406-.422c.824 0 1.465.271 1.922.814.457.543.685 1.32.685 2.333v.45h-4.295c.016.626.198 1.132.545 1.518.352.383.797.574 1.336.574.383 0 .707-.078.973-.234.266-.156.498-.363.697-.621l.662.516c-.531.816-1.328 1.224-2.39 1.224zm-.134-5.683c-.438 0-.805.16-1.102.48-.297.316-.48.762-.55 1.336h3.175v-.082c-.031-.55-.18-.977-.445-1.277-.266-.305-.625-.457-1.078-.457zm9.527 1.763c-.965-.277-1.668-.617-2.109-1.02a1.964 1.964 0 0 1-.656-1.5c0-.671.267-1.226.802-1.663.539-.442 1.239-.662 2.098-.662.586 0 1.107.113 1.564.34.461.226.817.538 1.067.937.254.398.381.834.381 1.306h-1.131c0-.515-.164-.92-.492-1.212-.329-.297-.791-.446-1.389-.446-.555 0-.988.123-1.301.37-.308.242-.463.58-.463 1.013 0 .348.147.643.44.885.297.238.799.457 1.506.656.711.2 1.265.42 1.664.662.402.239.699.518.89.838.196.32.293.697.293 1.131 0 .691-.269 1.246-.808 1.664-.539.414-1.26.621-2.162.621a4.042 4.042 0 0 1-1.641-.334c-.508-.226-.9-.535-1.178-.926a2.266 2.266 0 0 1-.41-1.33h1.131c0 .516.189.924.568 1.225.383.297.893.445 1.53.445.593 0 1.048-.12 1.365-.363.316-.242.474-.572.474-.99 0-.418-.146-.74-.439-.967-.293-.23-.824-.457-1.594-.68zM109.986 37h-1.084v-9h1.084v9zm2.918 0h-1.084v-6.34h1.084V37zm-1.172-8.021c0-.176.053-.325.159-.446.109-.12.269-.181.48-.181.211 0 .371.06.481.181.109.121.164.27.164.445a.62.62 0 0 1-.164.44c-.11.117-.27.176-.481.176-.211 0-.371-.059-.48-.176a.63.63 0 0 1-.159-.44zm2.649 4.798c0-.972.23-1.754.691-2.343.461-.594 1.065-.891 1.811-.891.742 0 1.33.254 1.763.762V28h1.084v9h-.996l-.052-.68c-.434.532-1.037.797-1.811.797-.734 0-1.334-.3-1.799-.902-.461-.602-.691-1.387-.691-2.356v-.082zm1.084.123c0 .72.148 1.282.445 1.688.297.406.707.61 1.231.61.687 0 1.189-.31 1.505-.926v-2.913c-.324-.597-.822-.896-1.494-.896-.531 0-.945.205-1.242.615-.297.41-.445 1.018-.445 1.822zm8.584 3.217c-.86 0-1.559-.281-2.098-.844-.539-.566-.808-1.322-.808-2.267v-.2c0-.628.119-1.189.357-1.681a2.812 2.812 0 0 1 1.008-1.16 2.533 2.533 0 0 1 1.406-.422c.824 0 1.465.271 1.922.814.457.543.685 1.32.685 2.333v.45h-4.294c.015.626.197 1.132.544 1.518.352.383.797.574 1.336.574.383 0 .707-.078.973-.234.266-.156.498-.363.697-.621l.662.516c-.531.816-1.328 1.224-2.39 1.224zm-.135-5.683c-.437 0-.805.16-1.102.48-.296.316-.48.762-.55 1.336h3.176v-.082c-.032-.55-.18-.977-.446-1.277-.265-.305-.625-.457-1.078-.457zm7.559 3.884a.79.79 0 0 0-.334-.68c-.219-.163-.604-.304-1.155-.421-.546-.117-.982-.258-1.306-.422-.321-.164-.559-.36-.715-.586a1.418 1.418 0 0 1-.229-.809c0-.52.219-.959.657-1.318.441-.36 1.004-.539 1.687-.539.719 0 1.301.186 1.746.557.449.37.674.845.674 1.423h-1.09c0-.296-.127-.552-.381-.767-.25-.215-.566-.322-.949-.322-.394 0-.703.085-.926.257a.813.813 0 0 0-.334.674c0 .262.104.46.311.592.207.133.58.26 1.119.38.543.122.982.266 1.318.434.336.169.584.372.745.61.164.234.246.521.246.861a1.63 1.63 0 0 1-.68 1.365c-.453.34-1.041.51-1.764.51-.508 0-.957-.09-1.347-.27a2.216 2.216 0 0 1-.92-.75 1.838 1.838 0 0 1-.328-1.048h1.084c.019.363.164.652.433.867.274.211.633.316 1.078.316.41 0 .739-.082.985-.246.25-.168.375-.39.375-.668z"/><rect width="72" height="4" x="398" y="28" fill="#fff" rx="2"/><rect width="72" height="4" x="289" y="28" fill="#F1F1F3" rx="2"/><path fill="#D0D2D8" fill-rule="evenodd" d="M212 164a3 3 0 1 0 0 6h194a3 3 0 1 0 0-6H212zm0 26a3 3 0 1 0 0 6h194a3 3 0 1 0 0-6H212zm-3 29a3 3 0 0 1 3-3h194a3 3 0 1 1 0 6H212a3 3 0 0 1-3-3zm3 23a3 3 0 1 0 0 6h194a3 3 0 1 0 0-6H212zm-3 29a3 3 0 0 1 3-3h194a3 3 0 1 1 0 6H212a3 3 0 0 1-3-3zm3 23a3 3 0 1 0 0 6h134a3 3 0 1 0 0-6H212z" clip-rule="evenodd"/><g filter="url(#k)"><rect width="36" height="36" x="142" y="135" fill="#fff" rx="8"/><g clip-path="url(#l)"><path fill="#45A1FC" d="M150 153c0-5.523 4.477-10 10-10s10 4.477 10 10-4.477 10-10 10-10-4.477-10-10z"/><path fill="#45A1FC" fill-rule="evenodd" d="M160 163c5.523 0 10-4.477 10-10s-4.477-10-10-10-10 4.477-10 10 4.477 10 10 10z" clip-rule="evenodd"/><path fill="#fff" d="M185 154v2c-1.655 0-2.416-.571-3.332-1.945-.584-.876-.823-1.055-1.668-1.055s-1.084.179-1.668 1.055c-.916 1.374-1.677 1.945-3.332 1.945-1.655 0-2.416-.571-3.332-1.945-.584-.876-.823-1.055-1.668-1.055s-1.084.179-1.668 1.055c-.916 1.374-1.677 1.945-3.332 1.945-1.655 0-2.416-.571-3.332-1.945-.584-.876-.823-1.055-1.668-1.055s-1.084.179-1.668 1.055c-.916 1.374-1.677 1.945-3.332 1.945-1.655 0-2.416-.571-3.332-1.945-.584-.876-.823-1.055-1.668-1.055s-1.084.179-1.668 1.055c-.916 1.374-1.677 1.945-3.332 1.945v-2c.845 0 1.084-.179 1.668-1.055.916-1.374 1.677-1.945 3.332-1.945 1.655 0 2.416.571 3.332 1.945.584.876.823 1.055 1.668 1.055s1.084-.179 1.668-1.055c.916-1.374 1.677-1.945 3.332-1.945 1.655 0 2.416.571 3.332 1.945.584.876.823 1.055 1.668 1.055s1.084-.179 1.668-1.055c.916-1.374 1.677-1.945 3.332-1.945 1.655 0 2.416.571 3.332 1.945.584.876.823 1.055 1.668 1.055s1.084-.179 1.668-1.055c.916-1.374 1.677-1.945 3.332-1.945 1.655 0 2.416.571 3.332 1.945.584.876.823 1.055 1.668 1.055z"/></g></g><path fill="#fff" fill-rule="evenodd" d="M37 98a3 3 0 1 0 0 6h46a3 3 0 1 0 0-6H37zm9 14a3 3 0 1 0 0 6h27.96a3 3 0 1 0 0-6H46z" clip-rule="evenodd"/></g><defs><filter id="b" width="130" height="350" x="-5" y="57" color-interpolation-filters="sRGB" filterUnits="userSpaceOnUse"><feFlood flood-opacity="0" result="BackgroundImageFix"/><feColorMatrix in="SourceAlpha" values="0 0 0 0 0 0 0 0 0 0 0 0 0 0 0 0 0 0 127 0"/><feMorphology in="SourceAlpha" radius="1" result="effect1_dropShadow"/><feOffset dy="1"/><feGaussianBlur stdDeviation="2"/><feColorMatrix values="0 0 0 0 0 0 0 0 0 0 0 0 0 0 0 0 0 0 0.04 0"/><feBlend in2="BackgroundImageFix" result="effect1_dropShadow"/><feColorMatrix in="SourceAlpha" values="0 0 0 0 0 0 0 0 0 0 0 0 0 0 0 0 0 0 127 0"/><feMorphology in="SourceAlpha" radius="1" result="effect2_dropShadow"/><feOffset dy="2"/><feGaussianBlur stdDeviation="3"/><feColorMatrix values="0 0 0 0 0 0 0 0 0 0 0 0 0 0 0 0 0 0 0.16 0"/><feBlend in2="effect1_dropShadow" result="effect2_dropShadow"/><feBlend in="SourceGraphic" in2="effect2_dropShadow" result="shape"/></filter><filter id="c" width="310" height="240" x="155" y="112" color-interpolation-filters="sRGB" filterUnits="userSpaceOnUse"><feFlood flood-opacity="0" result="BackgroundImageFix"/><feColorMatrix in="SourceAlpha" values="0 0 0 0 0 0 0 0 0 0 0 0 0 0 0 0 0 0 127 0"/><feMorphology in="SourceAlpha" radius="1" result="effect1_dropShadow"/><feOffset dy="1"/><feGaussianBlur stdDeviation="2"/><feColorMatrix values="0 0 0 0 0 0 0 0 0 0 0 0 0 0 0 0 0 0 0.04 0"/><feBlend in2="BackgroundImageFix" result="effect1_dropShadow"/><feColorMatrix in="SourceAlpha" values="0 0 0 0 0 0 0 0 0 0 0 0 0 0 0 0 0 0 127 0"/><feMorphology in="SourceAlpha" radius="1" result="effect2_dropShadow"/><feOffset dy="2"/><feGaussianBlur stdDeviation="3"/><feColorMatrix values="0 0 0 0 0 0 0 0 0 0 0 0 0 0 0 0 0 0 0.16 0"/><feBlend in2="effect1_dropShadow" result="effect2_dropShadow"/><feBlend in="SourceGraphic" in2="effect2_dropShadow" result="shape"/></filter><filter id="d" width="110" height="82" x="5" y="69" color-interpolation-filters="sRGB" filterUnits="userSpaceOnUse"><feFlood flood-opacity="0" result="BackgroundImageFix"/><feColorMatrix in="SourceAlpha" values="0 0 0 0 0 0 0 0 0 0 0 0 0 0 0 0 0 0 127 0"/><feMorphology in="SourceAlpha" radius="1" result="effect1_dropShadow"/><feOffset dy="1"/><feGaussianBlur stdDeviation="2"/><feColorMatrix values="0 0 0 0 0 0 0 0 0 0 0 0 0 0 0 0 0 0 0.04 0"/><feBlend in2="BackgroundImageFix" result="effect1_dropShadow"/><feColorMatrix in="SourceAlpha" values="0 0 0 0 0 0 0 0 0 0 0 0 0 0 0 0 0 0 127 0"/><feMorphology in="SourceAlpha" radius="1" result="effect2_dropShadow"/><feOffset dy="2"/><feGaussianBlur stdDeviation="3"/><feColorMatrix values="0 0 0 0 0 0 0 0 0 0 0 0 0 0 0 0 0 0 0.16 0"/><feBlend in2="effect1_dropShadow" result="effect2_dropShadow"/><feBlend in="SourceGraphic" in2="effect2_dropShadow" result="shape"/></filter><filter id="e" width="110" height="82" x="5" y="153" color-interpolation-filters="sRGB" filterUnits="userSpaceOnUse"><feFlood flood-opacity="0" result="BackgroundImageFix"/><feColorMatrix in="SourceAlpha" values="0 0 0 0 0 0 0 0 0 0 0 0 0 0 0 0 0 0 127 0"/><feMorphology in="SourceAlpha" radius="1" result="effect1_dropShadow"/><feOffset dy="1"/><feGaussianBlur stdDeviation="2"/><feColorMatrix values="0 0 0 0 0 0 0 0 0 0 0 0 0 0 0 0 0 0 0.04 0"/><feBlend in2="BackgroundImageFix" result="effect1_dropShadow"/><feColorMatrix in="SourceAlpha" values="0 0 0 0 0 0 0 0 0 0 0 0 0 0 0 0 0 0 127 0"/><feMorphology in="SourceAlpha" radius="1" result="effect2_dropShadow"/><feOffset dy="2"/><feGaussianBlur stdDeviation="3"/><feColorMatrix values="0 0 0 0 0 0 0 0 0 0 0 0 0 0 0 0 0 0 0.16 0"/><feBlend in2="effect1_dropShadow" result="effect2_dropShadow"/><feBlend in="SourceGraphic" in2="effect2_dropShadow" result="shape"/></filter><filter id="f" width="110" height="82" x="5" y="237" color-interpolation-filters="sRGB" filterUnits="userSpaceOnUse"><feFlood flood-opacity="0" result="BackgroundImageFix"/><feColorMatrix in="SourceAlpha" values="0 0 0 0 0 0 0 0 0 0 0 0 0 0 0 0 0 0 127 0"/><feMorphology in="SourceAlpha" radius="1" result="effect1_dropShadow"/><feOffset dy="1"/><feGaussianBlur stdDeviation="2"/><feColorMatrix values="0 0 0 0 0 0 0 0 0 0 0 0 0 0 0 0 0 0 0.04 0"/><feBlend in2="BackgroundImageFix" result="effect1_dropShadow"/><feColorMatrix in="SourceAlpha" values="0 0 0 0 0 0 0 0 0 0 0 0 0 0 0 0 0 0 127 0"/><feMorphology in="SourceAlpha" radius="1" result="effect2_dropShadow"/><feOffset dy="2"/><feGaussianBlur stdDeviation="3"/><feColorMatrix values="0 0 0 0 0 0 0 0 0 0 0 0 0 0 0 0 0 0 0.16 0"/><feBlend in2="effect1_dropShadow" result="effect2_dropShadow"/><feBlend in="SourceGraphic" in2="effect2_dropShadow" result="shape"/></filter><filter id="g" width="510" height="70" x="-5" y="-3" color-interpolation-filters="sRGB" filterUnits="userSpaceOnUse"><feFlood flood-opacity="0" result="BackgroundImageFix"/><feColorMatrix in="SourceAlpha" values="0 0 0 0 0 0 0 0 0 0 0 0 0 0 0 0 0 0 127 0"/><feMorphology in="SourceAlpha" radius="1" result="effect1_dropShadow"/><feOffset dy="1"/><feGaussianBlur stdDeviation="2"/><feColorMatrix values="0 0 0 0 0 0 0 0 0 0 0 0 0 0 0 0 0 0 0.04 0"/><feBlend in2="BackgroundImageFix" result="effect1_dropShadow"/><feColorMatrix in="SourceAlpha" values="0 0 0 0 0 0 0 0 0 0 0 0 0 0 0 0 0 0 127 0"/><feMorphology in="SourceAlpha" radius="1" result="effect2_dropShadow"/><feOffset dy="2"/><feGaussianBlur stdDeviation="3"/><feColorMatrix values="0 0 0 0 0 0 0 0 0 0 0 0 0 0 0 0 0 0 0.16 0"/><feBlend in2="effect1_dropShadow" result="effect2_dropShadow"/><feBlend in="SourceGraphic" in2="effect2_dropShadow" result="shape"/></filter><filter id="j" width="9.9" height="9.9" x="32.751" y="12.95" color-interpolation-filters="sRGB" filterUnits="userSpaceOnUse"><feFlood flood-opacity="0" result="BackgroundImageFix"/><feColorMatrix in="SourceAlpha" values="0 0 0 0 0 0 0 0 0 0 0 0 0 0 0 0 0 0 127 0"/><feOffset/><feGaussianBlur stdDeviation=".275"/><feColorMatrix values="0 0 0 0 0 0 0 0 0 0 0 0 0 0 0 0 0 0 0.144503 0"/><feBlend in2="BackgroundImageFix" result="effect1_dropShadow"/><feBlend in="SourceGraphic" in2="effect1_dropShadow" result="shape"/></filter><filter id="k" width="46" height="46" x="137" y="132" color-interpolation-filters="sRGB" filterUnits="userSpaceOnUse"><feFlood flood-opacity="0" result="BackgroundImageFix"/><feColorMatrix in="SourceAlpha" values="0 0 0 0 0 0 0 0 0 0 0 0 0 0 0 0 0 0 127 0"/><feMorphology in="SourceAlpha" radius="1" result="effect1_dropShadow"/><feOffset dy="1"/><feGaussianBlur stdDeviation="2"/><feColorMatrix values="0 0 0 0 0 0 0 0 0 0 0 0 0 0 0 0 0 0 0.04 0"/><feBlend in2="BackgroundImageFix" result="effect1_dropShadow"/><feColorMatrix in="SourceAlpha" values="0 0 0 0 0 0 0 0 0 0 0 0 0 0 0 0 0 0 127 0"/><feMorphology in="SourceAlpha" radius="1" result="effect2_dropShadow"/><feOffset dy="2"/><feGaussianBlur stdDeviation="3"/><feColorMatrix values="0 0 0 0 0 0 0 0 0 0 0 0 0 0 0 0 0 0 0.16 0"/><feBlend in2="effect1_dropShadow" result="effect2_dropShadow"/><feBlend in="SourceGraphic" in2="effect2_dropShadow" result="shape"/></filter><clipPath id="a"><path fill="#fff" d="M0 12C0 5.373 5.373 0 12 0h476c6.627 0 12 5.373 12 12v376c0 6.627-5.373 12-12 12H12c-6.627 0-12-5.373-12-12V12z"/></clipPath><clipPath id="l"><path fill="#fff" d="M150 153c0-5.523 4.477-10 10-10s10 4.477 10 10-4.477 10-10 10-10-4.477-10-10z"/></clipPath><linearGradient id="i" x1="45.067" x2="35.692" y1="24.438" y2="19.581" gradientUnits="userSpaceOnUse"><stop stop-color="#F4B70A"/><stop offset="1" stop-color="#EBA216"/></linearGradient></defs></svg>